<svg width="85" height="40" viewBox="0 0 85 40" fill="none" xmlns="http://www.w3.org/2000/svg">
<rect width="85" height="40" rx="5" fill="#E1EBFF"/>
<path d="M18.912 26V18.544L26.656 26.656V15.328H25.024V22.72L17.28 14.608V26H18.912ZM32.1775 19.088C30.1455 19.088 28.5775 20.56 28.5775 22.64C28.5775 24.704 30.1455 26.208 32.1775 26.208C34.2095 26.208 35.7775 24.704 35.7775 22.64C35.7775 20.56 34.2095 19.088 32.1775 19.088ZM32.1775 24.8C30.9455 24.8 30.1775 23.952 30.1775 22.656C30.1775 21.12 31.1855 20.496 32.1775 20.496C33.1695 20.496 34.1775 21.12 34.1775 22.656C34.1775 23.952 33.4095 24.8 32.1775 24.8Z" fill="#606A7A"/>
<path d="M63 10H65.67C66.236 9.98999 66.7859 10.1881 67.2154 10.5568C67.6449 10.9255 67.9241 11.4391 68 12V19C67.9241 19.5609 67.6449 20.0745 67.2154 20.4432C66.7859 20.8119 66.236 21.01 65.67 21H63M56 23V27C56 27.7956 56.3161 28.5587 56.8787 29.1213C57.4413 29.6839 58.2044 30 59 30L63 21V10H51.72C51.2377 9.99454 50.7696 10.1636 50.4021 10.476C50.0346 10.7884 49.7923 11.2231 49.72 11.7L48.34 20.7C48.2965 20.9866 48.3158 21.2793 48.3967 21.5577C48.4775 21.8362 48.6179 22.0937 48.8081 22.3125C48.9984 22.5313 49.2339 22.7061 49.4984 22.8248C49.7629 22.9435 50.0501 23.0033 50.34 23H56Z" stroke="#606A7A" stroke-width="2" stroke-linecap="round" stroke-linejoin="round"/>
</svg>
