<svg width="86" height="40" viewBox="0 0 86 40" fill="none" xmlns="http://www.w3.org/2000/svg">
<rect width="86" height="40" rx="5" fill="#E5CDFF"/>
<path d="M19.504 26H21.136V21.392L24.64 15.328H22.784L20.32 19.6L17.856 15.328H16L19.504 21.392V26ZM29.5558 23.728C29.4118 23.984 29.2038 24.256 28.9318 24.464C28.6118 24.704 28.2918 24.8 27.8598 24.8C27.4758 24.8 27.0278 24.736 26.6598 24.368C26.3238 24.032 26.1158 23.488 26.0838 23.008H30.9158V22.816C30.9158 22.112 30.8358 20.864 29.9718 19.968C29.5718 19.552 28.8838 19.088 27.8118 19.088C26.8518 19.088 26.1158 19.44 25.5558 20C24.8518 20.72 24.4838 21.728 24.4838 22.768C24.4838 23.776 24.8358 24.704 25.4758 25.344C26.1158 25.984 26.8518 26.208 27.7478 26.208C28.4678 26.208 29.1878 26.048 29.7318 25.696C30.1638 25.424 30.5798 24.976 30.8678 24.464L29.5558 23.728ZM26.1957 21.728C26.2758 21.392 26.4518 21.072 26.6758 20.864C26.8838 20.656 27.2358 20.432 27.7798 20.432C28.2918 20.432 28.6278 20.624 28.8358 20.816C29.0758 21.04 29.2518 21.36 29.3158 21.728H26.1957ZM36.6665 20.272C36.4265 19.84 36.1225 19.584 35.8985 19.44C35.5145 19.184 35.1305 19.088 34.6505 19.088C33.8185 19.088 33.3065 19.408 33.0025 19.728C32.6505 20.096 32.4425 20.624 32.4425 21.168C32.4425 21.6 32.5705 21.968 32.9225 22.304C33.1785 22.56 33.5465 22.736 33.8505 22.88L34.4265 23.152C34.6825 23.264 34.9065 23.376 35.0985 23.568C35.2425 23.728 35.3065 23.888 35.3065 24.08C35.3065 24.272 35.2105 24.48 35.0825 24.608C34.9385 24.752 34.6825 24.832 34.4425 24.832C34.0745 24.832 33.8505 24.672 33.7545 24.576C33.6105 24.448 33.4665 24.16 33.3865 23.936L32.1065 24.544C32.2665 25.024 32.5865 25.488 32.9705 25.776C33.4505 26.144 33.9945 26.208 34.4265 26.208C35.1305 26.208 35.7865 26.032 36.3145 25.456C36.6825 25.056 36.9065 24.528 36.9065 23.92C36.9065 23.456 36.7785 23.04 36.4105 22.672C36.1545 22.4 35.8185 22.224 35.4665 22.048L34.6665 21.648C34.3305 21.472 34.2345 21.44 34.1385 21.376C33.9945 21.28 33.9145 21.168 33.9145 20.992C33.9145 20.848 33.9785 20.72 34.0585 20.64C34.1545 20.544 34.3145 20.464 34.5385 20.464C35.0345 20.464 35.3385 20.784 35.4985 21.04L36.6665 20.272Z" fill="#7700FF"/>
<path d="M53 30H50C49.4696 30 48.9609 29.7893 48.5858 29.4142C48.2107 29.0391 48 28.5304 48 28V21C48 20.4696 48.2107 19.9609 48.5858 19.5858C48.9609 19.2107 49.4696 19 50 19H53M60 17V13C60 12.2044 59.6839 11.4413 59.1213 10.8787C58.5587 10.3161 57.7956 10 57 10L53 19V30H64.28C64.7623 30.0055 65.2304 29.8364 65.5979 29.524C65.9654 29.2116 66.2077 28.7769 66.28 28.3L67.66 19.3C67.7035 19.0134 67.6842 18.7207 67.6033 18.4423C67.5225 18.1638 67.3821 17.9063 67.1919 17.6875C67.0016 17.4687 66.7661 17.2939 66.5016 17.1752C66.2371 17.0565 65.9499 16.9967 65.66 17H60Z" stroke="#7700FF" stroke-width="2" stroke-linecap="round" stroke-linejoin="round"/>
</svg>
