<svg width="206" height="34" viewBox="0 0 206 34" fill="none" xmlns="http://www.w3.org/2000/svg">
<path fill-rule="evenodd" clip-rule="evenodd" d="M25.4 25.86L32.539 33.014H11.986V12.44L19.577 20.04C20.5479 19.0952 21.2172 17.884 21.5005 16.5592C21.7838 15.2345 21.6684 13.8555 21.1689 12.5962C20.6693 11.3369 19.808 10.2538 18.6936 9.48355C17.5792 8.71326 16.2616 8.29029 14.907 8.268C13.1219 8.28834 11.416 9.00758 10.1551 10.2714C8.89433 11.5352 8.17913 13.2429 8.16302 15.028V33H2.07904e-05V15.108C-0.00657329 11.1336 1.55565 7.31725 4.34717 4.48828C7.13869 1.65931 10.9339 0.0463675 14.908 0C17.883 0.0481746 20.778 0.970689 23.2323 2.6526C25.6866 4.3345 27.5918 6.70144 28.7104 9.45849C29.829 12.2155 30.1115 15.2408 29.5229 18.1573C28.9343 21.0738 27.5004 23.7526 25.4 25.86V25.86Z" fill="#6AE8FF"/>
<path d="M42.748 12.523L42.179 15.777C41.8153 15.6735 41.4408 15.6121 41.063 15.594C40.7323 15.5768 40.4022 15.639 40.1004 15.7754C39.7985 15.9118 39.5337 16.1184 39.328 16.378C38.8372 17.0906 38.5048 17.9001 38.353 18.752V25.276H34.983V12.689H37.888L38.195 15.134C38.4338 14.3332 38.8909 13.6147 39.515 13.059C40.056 12.5823 40.753 12.3208 41.474 12.324C41.9057 12.3334 42.3341 12.4003 42.748 12.523V12.523Z" fill="black"/>
<path d="M53.685 20.012H45.799C45.8071 20.9056 46.1373 21.7664 46.729 22.436C47.3015 22.9345 48.0462 23.1893 48.804 23.146C49.3231 23.1495 49.8387 23.0612 50.327 22.885C50.8739 22.673 51.3925 22.3942 51.871 22.055L53.271 23.955C51.931 25.0693 50.2408 25.6748 48.498 25.665C47.6533 25.7187 46.8071 25.5871 46.0186 25.2794C45.23 24.9718 44.5183 24.4955 43.933 23.884C42.8143 22.5348 42.2505 20.8106 42.356 19.061C42.3363 17.8726 42.5669 16.6934 43.033 15.6C43.4467 14.626 44.1307 13.7907 45.004 13.193C46.1303 12.5003 47.4556 12.2033 48.7698 12.3491C50.0841 12.4949 51.312 13.0752 52.259 13.998C53.328 15.3259 53.8664 17.0031 53.77 18.705C53.768 18.862 53.731 19.298 53.685 20.012ZM50.406 17.754C50.406 15.6654 49.6534 14.6207 48.148 14.62C47.8344 14.6061 47.5222 14.6692 47.2386 14.8038C46.955 14.9384 46.7086 15.1403 46.521 15.392C46.0624 16.1416 45.8202 17.0033 45.821 17.882H50.407L50.406 17.754Z" fill="black"/>
<path d="M56.377 24.915C55.7656 24.1944 55.4589 23.264 55.522 22.321V7.41501L58.9 7.01501V22.231C58.9 22.797 59.132 23.082 59.589 23.082C59.8188 23.0881 60.0467 23.0383 60.253 22.937L60.942 25.395C60.2608 25.6877 59.5253 25.8326 58.784 25.82C58.3416 25.8486 57.8981 25.7827 57.4831 25.6267C57.0681 25.4706 56.691 25.228 56.377 24.915Z" fill="black"/>
<path d="M71.691 14.085C72.8218 15.4609 73.3911 17.2132 73.285 18.991C73.3092 20.1974 73.061 21.3938 72.559 22.491C72.1135 23.459 71.3915 24.2735 70.484 24.832C69.5097 25.4024 68.3957 25.6899 67.267 25.662C66.4445 25.7063 65.6222 25.5707 64.8575 25.2646C64.0928 24.9586 63.4039 24.4895 62.839 23.89C61.7058 22.5175 61.1341 20.7668 61.239 18.99C61.2094 17.7848 61.4521 16.5884 61.949 15.49C62.3964 14.5232 63.1179 13.7092 64.024 13.149C65.0063 12.5768 66.1286 12.2894 67.265 12.319C68.0869 12.2731 68.9088 12.4074 69.6734 12.7125C70.4379 13.0175 71.1265 13.486 71.691 14.085V14.085ZM65.362 15.845C64.8772 16.8193 64.6607 17.9053 64.735 18.991C64.6607 20.0768 64.8772 21.1627 65.362 22.137C65.5693 22.4479 65.8502 22.7027 66.1796 22.879C66.509 23.0552 66.8769 23.1475 67.2505 23.1475C67.6242 23.1475 67.992 23.0552 68.3214 22.879C68.6509 22.7027 68.9317 22.4479 69.139 22.137C69.6241 21.1627 69.8419 20.0771 69.77 18.991C69.8466 17.9061 69.6333 16.8204 69.152 15.845C68.9615 15.5213 68.6859 15.2561 68.3551 15.0782C68.0244 14.9003 67.6511 14.8165 67.276 14.836C66.8956 14.8154 66.5167 14.8984 66.1796 15.0761C65.8426 15.2538 65.56 15.5195 65.362 15.845V15.845Z" fill="black"/>
<path d="M84.924 22.871C85.0911 23.1216 85.3433 23.3032 85.634 23.382L84.924 25.615C84.2855 25.585 83.6629 25.4059 83.106 25.092C82.6125 24.7774 82.2339 24.3115 82.027 23.764C81.6203 24.385 81.0569 24.8877 80.3937 25.2213C79.7305 25.5549 78.9911 25.7076 78.25 25.664C77.7061 25.6924 77.162 25.6112 76.65 25.4251C76.1381 25.2391 75.6688 24.952 75.27 24.581C74.9009 24.2144 74.6124 23.7747 74.423 23.2901C74.2336 22.8056 74.1474 22.2868 74.17 21.767C74.139 21.1576 74.2599 20.55 74.5217 19.9988C74.7835 19.4476 75.1781 18.9701 75.67 18.609C76.9541 17.8048 78.4578 17.4229 79.97 17.517H81.418V16.899C81.4506 16.6083 81.4208 16.3139 81.3306 16.0356C81.2404 15.7573 81.0919 15.5014 80.895 15.285C80.3837 14.9377 79.7674 14.7793 79.152 14.837C78.0175 14.884 76.8973 15.108 75.832 15.501L75.072 13.243C76.5517 12.6422 78.132 12.328 79.729 12.317C81.0795 12.2043 82.4237 12.5962 83.502 13.417C83.927 13.8474 84.2551 14.3638 84.4641 14.9314C84.6732 15.499 84.7584 16.1048 84.714 16.708V21.788C84.6851 22.1614 84.7577 22.5356 84.924 22.871V22.871ZM81.408 21.827V19.443H80.292C78.4687 19.443 77.5583 20.1237 77.561 21.485C77.5324 21.9534 77.6805 22.4155 77.976 22.78C78.1308 22.9391 78.3182 23.0627 78.5254 23.1423C78.7326 23.2219 78.9545 23.2556 79.176 23.241C79.6432 23.2381 80.1001 23.104 80.4947 22.854C80.8894 22.604 81.2058 22.2482 81.408 21.827Z" fill="black"/>
<path d="M98.462 7.41501V25.442H95.494L95.303 23.86C94.9265 24.4753 94.3954 24.9812 93.7625 25.3274C93.1297 25.6735 92.4172 25.8479 91.696 25.833C90.9949 25.8643 90.2978 25.7111 89.6743 25.3887C89.0509 25.0664 88.5229 24.5862 88.143 23.996C87.2551 22.4849 86.8309 20.7462 86.923 18.996C86.9007 17.7856 87.1137 16.5823 87.55 15.453C87.914 14.4969 88.5344 13.6596 89.343 13.033C90.1159 12.4509 91.0606 12.1427 92.028 12.157C92.5983 12.1519 93.1637 12.2623 93.6901 12.4816C94.2165 12.7009 94.6931 13.0245 95.091 13.433V7.01501L98.462 7.41501ZM94 22.882C94.4388 22.5644 94.8101 22.1626 95.092 21.7V15.95C94.8099 15.5903 94.4687 15.2813 94.083 15.036C93.7242 14.8316 93.3169 14.7279 92.904 14.736C92.5353 14.73 92.1719 14.8242 91.8525 15.0084C91.533 15.1926 91.2695 15.4599 91.09 15.782C90.5884 16.7824 90.3623 17.8983 90.435 19.015C90.3517 20.1411 90.5529 21.27 91.02 22.298C91.1795 22.5981 91.4191 22.848 91.7122 23.02C92.0052 23.1919 92.3403 23.2792 92.68 23.272C93.1497 23.277 93.6099 23.1397 94 22.878V22.882Z" fill="black"/>
<path d="M102.104 24.92C101.494 24.1985 101.188 23.2687 101.249 22.326V7.41099L104.623 7.02399V22.232C104.623 22.798 104.851 23.083 105.312 23.083C105.542 23.0886 105.77 23.0389 105.976 22.938L106.665 25.396C105.982 25.688 105.246 25.8328 104.503 25.821C104.062 25.8484 103.621 25.7824 103.207 25.6271C102.794 25.4718 102.418 25.2308 102.104 24.92V24.92Z" fill="black"/>
<path d="M113.937 25.477C113.53 26.9229 112.699 28.2136 111.551 29.183C110.27 30.1219 108.731 30.6435 107.143 30.677L106.786 28.253C107.726 28.1842 108.634 27.888 109.434 27.39C110.069 26.8822 110.55 26.2082 110.824 25.443H109.664L105.744 12.864H109.33L111.845 23.264L114.51 12.864H118L113.937 25.477Z" fill="black"/>
<path d="M139.024 24.3673L139.024 24.3674C136.652 26.0396 134.44 26.324 131.504 26.324H126.5V5.98H131.568C134.513 5.98 136.969 6.29943 139.204 7.96033C141.661 9.81059 143.1 12.761 143.1 16.168C143.1 19.573 141.695 22.4856 139.024 24.3673ZM130.16 8.564H129.66V9.064V23.24V23.74H130.16H131.44C132.502 23.74 134.952 23.6829 136.948 22.2377C138.799 20.91 139.812 18.5678 139.812 16.168C139.812 13.8007 138.832 11.4639 136.989 10.0729L136.989 10.0729L136.986 10.0702C135.119 8.68738 132.862 8.564 131.44 8.564H130.16ZM175.772 8.18217L175.774 8.18026C177.803 6.27253 180.324 5.5 183.271 5.5C184.645 5.5 186.259 5.72173 188.019 6.61444V9.98625C186.128 8.40499 184.084 8.276 183.367 8.276C178.754 8.276 175.795 12.0718 175.795 16.232C175.795 21.2895 179.715 24.028 183.527 24.028C185.231 24.028 186.782 23.4349 188.019 22.3945V25.749C186.835 26.3284 185.294 26.804 183.239 26.804C179.639 26.804 177.486 25.5841 175.776 23.9663C173.42 21.7015 172.507 19.1804 172.507 16.168C172.507 12.4442 174.042 9.79007 175.772 8.18217ZM194.147 14.8651L194.143 14.8616C193.518 14.3224 192.62 13.267 192.62 11.272C192.62 9.81306 193.111 8.37475 194.13 7.30483C195.142 6.24164 196.716 5.5 198.968 5.5C200.184 5.5 202.382 5.71919 204.35 7.54402L202.822 9.54382C201.542 8.17303 200.125 8.02 199.352 8.02C198.121 8.02 197.242 8.41071 196.674 9.01863C196.115 9.61683 195.908 10.3716 195.908 11.016C195.908 11.6573 196.119 12.277 196.744 12.8267C197.339 13.3815 198.146 13.6695 199.412 14.1216L199.472 14.1429L199.476 14.1445C201.159 14.7271 202.624 15.2747 203.623 16.1855L203.625 16.1876C204.484 16.9604 205.284 18.267 205.284 20.296C205.284 22.2504 204.58 23.8669 203.384 24.9966C202.186 26.1284 200.459 26.804 198.36 26.804C194.923 26.804 192.805 24.8649 191.659 23.3341L193.6 21.4849C194.779 23.3281 196.691 24.028 198.2 24.028C199.243 24.028 200.19 23.7092 200.884 23.1051C201.584 22.4955 201.996 21.6206 201.996 20.584C201.996 19.6788 201.683 18.9392 201.007 18.3005L201.002 18.296C200.543 17.8735 199.965 17.5589 199.371 17.3013C198.829 17.0662 198.243 16.8666 197.689 16.6775C197.636 16.6593 197.583 16.6411 197.53 16.623C196.414 16.2403 195.154 15.754 194.147 14.8651ZM146.913 16.168C146.913 13.0434 148.035 10.383 149.941 8.50403C151.846 6.62482 154.564 5.5 157.806 5.5C161.047 5.5 163.765 6.62482 165.67 8.50403C167.576 10.383 168.698 13.0434 168.698 16.168C168.698 19.2924 167.576 21.9445 165.671 23.8153C163.766 25.6865 161.048 26.804 157.806 26.804C154.563 26.804 151.845 25.6865 149.94 23.8153C148.035 21.9445 146.913 19.2924 146.913 16.168ZM150.201 16.168C150.201 18.4435 150.979 20.4125 152.334 21.8154C153.69 23.2195 155.599 24.028 157.806 24.028C160.012 24.028 161.921 23.2195 163.277 21.8154C164.632 20.4125 165.41 18.4435 165.41 16.168C165.41 13.8927 164.633 11.9163 163.278 10.5057C161.922 9.09369 160.013 8.276 157.806 8.276C155.598 8.276 153.689 9.09369 152.333 10.5057C150.978 11.9163 150.201 13.8927 150.201 16.168Z" fill="#6AE8FF" stroke="#6AE8FF"/>
</svg>
