<svg xmlns="http://www.w3.org/2000/svg" width="118" height="33.012" viewBox="0 0 118 33.012">
  <g id="logo" transform="translate(0 -1.102)">
    <path id="Path_6791" data-name="Path 6791" d="M25.4,26.96l7.139,7.154H11.986V13.54l7.591,7.6a6.858,6.858,0,0,0-4.67-11.772,6.822,6.822,0,0,0-6.744,6.76V34.1H0V16.208A15.084,15.084,0,0,1,14.908,1.1,15.16,15.16,0,0,1,25.4,26.96Z" fill="#6ae8ff" fill-rule="evenodd"/>
    <path id="Path_6792" data-name="Path 6792" d="M90.815,30.319l-.569,3.254a4.939,4.939,0,0,0-1.116-.183,2.076,2.076,0,0,0-1.735.784,6.058,6.058,0,0,0-.975,2.374v6.524H83.05V30.485h2.905l.307,2.445a4.5,4.5,0,0,1,1.32-2.075,2.943,2.943,0,0,1,1.959-.735A4.855,4.855,0,0,1,90.815,30.319Z" transform="translate(-48.067 -16.696)"/>
    <path id="Path_6793" data-name="Path 6793" d="M111.829,37.777h-7.886a3.711,3.711,0,0,0,.93,2.424,2.907,2.907,0,0,0,2.075.71,4.4,4.4,0,0,0,1.523-.261,7.126,7.126,0,0,0,1.544-.83l1.4,1.9a7.4,7.4,0,0,1-4.773,1.71,5.809,5.809,0,0,1-4.565-1.781,6.905,6.905,0,0,1-1.577-4.823,8.466,8.466,0,0,1,.677-3.461,5.542,5.542,0,0,1,1.971-2.407,5.938,5.938,0,0,1,7.255.805,6.886,6.886,0,0,1,1.511,4.707C111.912,36.627,111.875,37.063,111.829,37.777Zm-3.279-2.258q0-3.133-2.258-3.134a1.923,1.923,0,0,0-1.627.772,4.762,4.762,0,0,0-.7,2.49h4.586Z" transform="translate(-58.144 -16.665)"/>
    <path id="Path_6794" data-name="Path 6794" d="M132.7,35.9a3.634,3.634,0,0,1-.855-2.594V18.4l3.378-.4V33.216c0,.566.232.851.689.851a1.421,1.421,0,0,0,.664-.145l.689,2.458a5.242,5.242,0,0,1-2.158.425A3.124,3.124,0,0,1,132.7,35.9Z" transform="translate(-76.323 -9.885)"/>
    <path id="Path_6795" data-name="Path 6795" d="M155.741,31.855a7.064,7.064,0,0,1,1.594,4.906,8.026,8.026,0,0,1-.726,3.5,5.4,5.4,0,0,1-2.075,2.341,6.071,6.071,0,0,1-3.217.83,5.666,5.666,0,0,1-4.428-1.772,7.044,7.044,0,0,1-1.6-4.9,8.013,8.013,0,0,1,.71-3.5,5.436,5.436,0,0,1,2.075-2.341,6.121,6.121,0,0,1,3.241-.83A5.649,5.649,0,0,1,155.741,31.855Zm-6.329,1.76a6.123,6.123,0,0,0-.627,3.146,6.123,6.123,0,0,0,.627,3.146,2.27,2.27,0,0,0,3.777,0,6.148,6.148,0,0,0,.631-3.146,6.134,6.134,0,0,0-.618-3.146,2.053,2.053,0,0,0-1.876-1.009A2.107,2.107,0,0,0,149.412,33.615Z" transform="translate(-84.05 -16.67)"/>
    <path id="Path_6796" data-name="Path 6796" d="M186.743,40.644a1.245,1.245,0,0,0,.71.511l-.71,2.233a4.094,4.094,0,0,1-1.818-.523,2.712,2.712,0,0,1-1.079-1.328,4.219,4.219,0,0,1-3.777,1.9,4.064,4.064,0,0,1-2.98-1.083,3.738,3.738,0,0,1-1.1-2.814,3.685,3.685,0,0,1,1.5-3.158,7.252,7.252,0,0,1,4.3-1.092h1.448v-.618a2.058,2.058,0,0,0-.523-1.614,2.66,2.66,0,0,0-1.743-.448,10.892,10.892,0,0,0-3.32.664l-.76-2.258a12.609,12.609,0,0,1,4.657-.926,5.477,5.477,0,0,1,3.773,1.1,4.241,4.241,0,0,1,1.212,3.291v5.08A2.077,2.077,0,0,0,186.743,40.644ZM183.227,39.6V37.216h-1.116q-2.735,0-2.731,2.042a1.875,1.875,0,0,0,.415,1.295,1.534,1.534,0,0,0,1.2.461A2.493,2.493,0,0,0,183.227,39.6Z" transform="translate(-101.819 -16.673)"/>
    <path id="Path_6797" data-name="Path 6797" d="M217.786,18.4V36.427h-2.968l-.191-1.582a4.129,4.129,0,0,1-3.607,1.973,4.013,4.013,0,0,1-3.553-1.837,8.942,8.942,0,0,1-1.22-5,9.353,9.353,0,0,1,.627-3.543,5.567,5.567,0,0,1,1.793-2.42,4.356,4.356,0,0,1,2.685-.876,4.223,4.223,0,0,1,3.063,1.276V18Zm-4.462,15.467a4.082,4.082,0,0,0,1.092-1.182v-5.75a4.03,4.03,0,0,0-1.009-.914,2.291,2.291,0,0,0-1.179-.3,2.039,2.039,0,0,0-1.814,1.046A6.3,6.3,0,0,0,209.759,30a6.735,6.735,0,0,0,.585,3.283,1.836,1.836,0,0,0,1.66.974A2.325,2.325,0,0,0,213.324,33.863Z" transform="translate(-119.324 -9.885)"/>
    <path id="Path_6798" data-name="Path 6798" d="M240.9,35.916a3.652,3.652,0,0,1-.855-2.594V18.407l3.374-.387V33.228c0,.566.228.851.689.851a1.432,1.432,0,0,0,.664-.145l.689,2.458a5.283,5.283,0,0,1-2.162.425A3.132,3.132,0,0,1,240.9,35.916Z" transform="translate(-138.796 -9.896)"/>
    <path id="Path_6799" data-name="Path 6799" d="M259.073,43.613a7.523,7.523,0,0,1-2.386,3.706,7.733,7.733,0,0,1-4.408,1.494l-.357-2.424a5.812,5.812,0,0,0,2.648-.863,4.391,4.391,0,0,0,1.39-1.947H254.8L250.88,31h3.586l2.515,10.4L259.646,31h3.49Z" transform="translate(-145.136 -17.036)"/>
  </g>
</svg>
