<svg width="266" height="241" viewBox="0 0 266 241" fill="none" xmlns="http://www.w3.org/2000/svg">
<g clip-path="url(#clip0_8_254)">
<path d="M183.817 240.393H108.34C97.0195 240.393 87.8095 231.19 87.8095 219.879V20.514C87.8095 9.20262 97.0195 0 108.34 0H183.817C195.137 0 204.347 9.20262 204.347 20.514C205.752 100.573 208.148 190.226 204.347 219.879C204.347 231.19 195.137 240.393 183.817 240.393L183.817 240.393V240.393Z" fill="#3F3D56"/>
<path d="M205.399 73.3329C204.92 73.3329 204.531 73.7221 204.531 74.2007V101.972C204.531 102.45 204.92 102.84 205.399 102.84C205.878 102.84 206.268 102.45 206.268 101.972V74.2007C206.268 73.7221 205.878 73.3329 205.399 73.3329Z" fill="#3F3D56"/>
<path d="M202.393 20.5142V219.875C202.393 229.721 194.724 237.775 185.026 238.4H185.022C184.879 238.408 184.735 238.417 184.588 238.421C184.332 238.434 184.075 238.439 183.815 238.439C183.815 238.439 182.859 238.369 181.114 238.239C179.35 238.109 176.784 237.914 173.583 237.658C172.624 237.584 171.612 237.501 170.543 237.415C168.415 237.241 166.079 237.05 163.573 236.833C162.575 236.751 161.541 236.66 160.486 236.568C155.092 236.104 149.051 235.562 142.681 234.946C141.604 234.846 140.518 234.742 139.424 234.633C139.137 234.603 89.7639 222.201 89.7639 219.875V20.5142C89.7639 10.2606 98.0802 1.95102 108.342 1.95102H119.433C121.205 1.95102 122.63 3.33089 122.782 5.09696C122.795 5.21412 122.808 5.33126 122.829 5.44843C123.151 7.22319 124.779 8.45986 126.586 8.45986H165.571C167.378 8.45986 169.006 7.22319 169.327 5.44843C169.349 5.33127 169.362 5.21413 169.375 5.09696C169.527 3.33089 170.952 1.95102 172.723 1.95102H183.815C194.077 1.95102 202.393 10.2606 202.393 20.5142H202.393Z" fill="white"/>
<path d="M87.3753 52.5046C86.8963 52.5046 86.5067 52.8939 86.5067 53.3725V60.3152C86.5067 60.7939 86.8963 61.1831 87.3753 61.1831C87.8543 61.1831 88.2438 60.7939 88.2438 60.3152V53.3725C88.2438 52.8939 87.8543 52.5046 87.3753 52.5046V52.5046Z" fill="#3F3D56"/>
<path d="M87.3753 73.3329C86.8963 73.3329 86.5067 73.7221 86.5067 74.2007V87.6523C86.5067 88.1309 86.8963 88.5202 87.3753 88.5202C87.8543 88.5202 88.2438 88.1309 88.2438 87.6523V74.2007C88.2438 73.7221 87.8543 73.3329 87.3753 73.3329V73.3329Z" fill="#3F3D56"/>
<path d="M87.3753 92.4255C86.8963 92.4255 86.5067 92.8147 86.5067 93.2933V106.745C86.5067 107.224 86.8963 107.613 87.3753 107.613C87.8543 107.613 88.2438 107.224 88.2438 106.745V93.2933C88.2438 92.8147 87.8543 92.4255 87.3753 92.4255Z" fill="#3F3D56"/>
<path d="M119.148 4.99017H102.504C102.423 4.99017 102.358 5.05551 102.358 5.13611V7.01385C102.358 7.09445 102.423 7.15978 102.504 7.15978H119.148C119.229 7.15978 119.294 7.09445 119.294 7.01385V5.13611C119.294 5.05551 119.229 4.99017 119.148 4.99017Z" fill="#E6E6E6"/>
<path d="M175.468 7.15979C176.427 7.15979 177.205 6.3827 177.205 5.4241C177.205 4.46551 176.427 3.68842 175.468 3.68842C174.509 3.68842 173.731 4.46551 173.731 5.4241C173.731 6.3827 174.509 7.15979 175.468 7.15979Z" fill="#E6E6E6"/>
<path d="M180.245 7.15979C181.204 7.15979 181.982 6.3827 181.982 5.4241C181.982 4.46551 181.204 3.68842 180.245 3.68842C179.286 3.68842 178.508 4.46551 178.508 5.4241C178.508 6.3827 179.286 7.15979 180.245 7.15979Z" fill="#E6E6E6"/>
<path d="M185.022 7.15979C185.981 7.15979 186.759 6.3827 186.759 5.4241C186.759 4.46551 185.981 3.68842 185.022 3.68842C184.063 3.68842 183.285 4.46551 183.285 5.4241C183.285 6.3827 184.063 7.15979 185.022 7.15979Z" fill="#E6E6E6"/>
<path d="M89.0458 236.763L83.7521 236.763L81.2339 216.361L89.0468 216.361L89.0458 236.763Z" fill="#FFB6B6"/>
<path d="M70.9091 236.643C70.7442 236.921 70.6573 237.816 70.6573 238.139C70.6573 239.13 71.4616 239.934 72.4539 239.934H88.8478C89.5247 239.934 90.0735 239.385 90.0735 238.709V238.027C90.0735 238.027 90.8845 235.977 89.2148 233.451C89.2148 233.451 87.1396 235.429 84.0388 232.331L83.1243 230.676L76.5052 235.513L72.8363 235.964C72.0336 236.063 71.322 235.949 70.9091 236.643H70.909V236.643H70.9091Z" fill="#2F2E41"/>
<path d="M59.771 208.425L54.4774 208.408L52.024 187.998L59.8369 188.023L59.771 208.425Z" fill="#FFB6B6"/>
<path d="M41.6347 208.248C41.469 208.525 41.3792 209.42 41.3782 209.742C41.375 210.734 42.1769 211.54 43.1692 211.543L59.5629 211.595C60.2398 211.597 60.7904 211.051 60.7925 210.374L60.7947 209.692C60.7947 209.692 61.6122 207.645 59.9505 205.114C59.9505 205.114 57.8691 207.085 54.7781 203.977L53.8689 202.319L47.2345 207.135L43.5641 207.575C42.7612 207.671 42.0499 207.554 41.6348 208.248H41.6347V208.248Z" fill="#2F2E41"/>
<path d="M81.325 112.903L74.7337 113.374C74.7337 113.374 52.4194 126.051 50.5362 128.873C48.6529 131.696 46.0635 135.695 48.4175 139.928C50.7716 144.162 48.9799 195.427 48.9799 195.427L60.2289 192.884L67.4361 139.248L82.502 137.131C82.502 137.131 87.681 148.295 85.7977 157.531C83.9145 166.768 82.9729 172.413 82.9729 172.413L80.6188 226.983L89.7996 226.748L98.0388 176.176L112.163 136.19L93.8015 114.55L81.325 112.903Z" fill="#2F2E41"/>
<path d="M113.811 55.0404L100.157 56.4517L98.745 61.156L85.5623 68.2125L89.7996 97.8497L86.5039 103.024L87.9164 108.199C87.9164 108.199 84.1499 108.67 84.6207 111.492L76.1461 112.903C76.1461 112.903 87.3862 115.196 89.7699 126.516C92.1536 137.836 111.928 139.248 111.928 139.248L127.464 90.7932L128.877 62.0969L118.048 59.2743L113.811 55.0404Z" fill="#AAFEE1"/>
<path d="M106.615 53.2553C112.477 53.2553 117.229 48.5071 117.229 42.6499C117.229 36.7928 112.477 32.0446 106.615 32.0446C100.753 32.0446 96.0013 36.7928 96.0013 42.6499C96.0013 48.5071 100.753 53.2553 106.615 53.2553Z" fill="#FFB6B6"/>
<path d="M101.099 52.2178C101.099 52.2178 91.6828 51.7474 92.6244 44.2205C90.2938 36.2052 92.3567 31.0009 99.6866 29.1667C99.6866 29.1667 101.57 28.6963 102.041 28.6963C108.233 28.6963 111.457 30.578 111.457 30.578C111.457 30.578 110.986 28.7148 111.457 29.176C111.928 29.6372 112.398 30.578 112.398 30.578C112.398 30.578 117.107 32.9302 117.107 37.6345C117.107 42.3388 117.107 40.4571 117.107 40.4571C117.107 40.4571 116.165 40.4571 115.223 37.6345C114.282 34.8119 108.185 36.6936 108.185 36.6936L108.632 37.6345L107.22 37.164L105.807 38.5753L104.865 38.1049C104.865 38.1049 101.099 38.1049 101.57 38.1049C102.041 38.1049 101.713 41.3019 101.713 41.3019L98.2742 45.1614L102.041 52.2178H101.099Z" fill="#2F2E41"/>
<path d="M50.9322 108.366C48.2517 109.827 46.8335 112.394 47.7644 114.098C48.6954 115.803 51.623 116 54.3035 114.538C55.4768 113.898 56.4083 113.046 57.0067 112.148L68.287 105.812L65.1984 100.586L54.4061 107.387C53.3263 107.404 52.1056 107.726 50.9322 108.366H50.9322Z" fill="#FFB6B6"/>
<path d="M88.9728 68.432C88.9728 68.432 84.5509 66.7498 83.0274 68.7747C81.5039 70.7997 71.4394 95.3705 71.4394 95.3705L56.673 103.076L60.8254 110.301L79.8402 103.976L92.3857 81.0502L88.9728 68.432V68.432Z" fill="#AAFEE1"/>
<path d="M228.413 149.126V198.991C228.413 203.401 224.823 206.989 220.409 206.989H97.057C92.6437 206.989 89.0533 203.401 89.0533 198.991V149.126C89.0533 144.716 92.6437 141.128 97.057 141.128H220.409C224.823 141.128 228.413 144.716 228.413 149.126Z" fill="white"/>
<path d="M228.413 149.126V198.991C228.413 203.401 224.823 206.989 220.409 206.989H97.057C92.6437 206.989 89.0533 203.401 89.0533 198.991V149.126C89.0533 144.716 92.6437 141.128 97.057 141.128H220.409C224.823 141.128 228.413 144.716 228.413 149.126ZM220.409 206.048C224.309 206.048 227.471 202.888 227.471 198.991V173.851C227.471 156.298 213.231 142.069 195.664 142.069H97.057C93.1567 142.069 89.9949 145.228 89.9949 149.126V198.991C89.9949 202.888 93.1567 206.048 97.057 206.048H220.409Z" fill="#3F3D56"/>
<path d="M144.425 171.255H128.314C127.908 171.255 127.577 171.585 127.577 171.991C127.577 172.397 127.908 172.727 128.314 172.727H144.425C144.832 172.727 145.162 172.397 145.162 171.991C145.162 171.585 144.832 171.255 144.425 171.255Z" fill="#7700FF"/>
<path d="M168.907 171.255H152.796C152.39 171.255 152.059 171.585 152.059 171.991C152.059 172.397 152.39 172.727 152.796 172.727H168.907C169.314 172.727 169.644 172.397 169.644 171.991C169.644 171.585 169.314 171.255 168.907 171.255Z" fill="#7700FF"/>
<path d="M144.425 179.303H128.314C127.908 179.303 127.577 179.633 127.577 180.039C127.577 180.444 127.908 180.775 128.314 180.775H144.425C144.832 180.775 145.162 180.444 145.162 180.039C145.162 179.633 144.832 179.303 144.425 179.303Z" fill="#7700FF"/>
<path d="M168.907 179.303H152.796C152.39 179.303 152.059 179.633 152.059 180.039C152.059 180.444 152.39 180.775 152.796 180.775H168.907C169.314 180.775 169.644 180.444 169.644 180.039C169.644 179.633 169.314 179.303 168.907 179.303Z" fill="#7700FF"/>
<path d="M194.126 180.039C194.126 179.633 193.796 179.303 193.39 179.303H177.278C176.872 179.303 176.542 179.633 176.542 180.039C176.542 180.444 176.872 180.775 177.278 180.775H193.39C193.796 180.775 194.126 180.444 194.126 180.039Z" fill="#7700FF"/>
<path d="M135.009 164.83C135.415 164.83 135.746 164.5 135.746 164.094C135.746 163.688 135.415 163.358 135.009 163.358H118.898C118.492 163.358 118.161 163.688 118.161 164.094C118.161 164.5 118.492 164.83 118.898 164.83H135.009Z" fill="#7700FF"/>
<path d="M182.457 164.531H198.568C198.975 164.531 199.305 164.2 199.305 163.794C199.305 163.389 198.975 163.059 198.568 163.059H182.457C182.051 163.059 181.72 163.389 181.72 163.794C181.72 164.2 182.051 164.531 182.457 164.531Z" fill="#7700FF"/>
<path d="M141.797 164.685H175.199C175.605 164.685 175.935 164.355 175.935 163.949C175.935 163.543 175.605 163.213 175.199 163.213H141.797C141.39 163.213 141.06 163.543 141.06 163.949C141.06 164.355 141.39 164.685 141.797 164.685Z" fill="#7700FF"/>
<path d="M154.939 186.614H138.827C138.421 186.614 138.091 186.944 138.091 187.35C138.091 187.756 138.421 188.086 138.827 188.086H154.939C155.345 188.086 155.675 187.756 155.675 187.35C155.675 186.944 155.345 186.614 154.939 186.614Z" fill="#7700FF"/>
<path d="M206.973 148.75V198.615C206.973 203.025 203.383 206.613 198.969 206.613H149.064C144.65 206.613 141.06 203.025 141.06 198.615V148.75C141.06 144.34 144.65 140.752 149.064 140.752H198.969C203.383 140.752 206.973 144.34 206.973 148.75Z" fill="white"/>
<path d="M206.973 148.75V198.615C206.973 203.025 203.383 206.613 198.969 206.613H149.064C144.65 206.613 141.06 203.025 141.06 198.615V148.75C141.06 144.34 144.65 140.752 149.064 140.752H198.969C203.383 140.752 206.973 144.34 206.973 148.75ZM195.873 205.672C201.484 205.672 206.032 201.128 206.032 195.522V173.475C206.032 155.922 191.791 141.693 174.224 141.693H149.064C145.163 141.693 142.001 144.852 142.001 148.75V191.658C142.001 199.398 148.281 205.672 156.027 205.672H195.873V205.672H195.873V205.672Z" fill="#3F3D56"/>
<path d="M180.66 161.118H164.548C164.142 161.118 163.812 160.788 163.812 160.382C163.812 159.976 164.142 159.646 164.548 159.646H180.66C181.066 159.646 181.396 159.976 181.396 160.382C181.396 160.788 181.066 161.118 180.66 161.118V161.118Z" fill="#7700FF"/>
<path d="M180.66 176.814H164.548C164.142 176.814 163.812 176.483 163.812 176.078C163.812 175.672 164.142 175.342 164.548 175.342H180.66C181.066 175.342 181.396 175.672 181.396 176.078C181.396 176.483 181.066 176.814 180.66 176.814V176.814Z" fill="#7700FF"/>
<path d="M172.656 198.453H156.545C156.139 198.453 155.808 198.123 155.808 197.717C155.808 197.312 156.139 196.981 156.545 196.981H172.656C173.062 196.981 173.393 197.312 173.393 197.717C173.393 198.123 173.062 198.453 172.656 198.453V198.453Z" fill="#7700FF"/>
<path d="M189.305 168.971H155.903C155.497 168.971 155.166 168.641 155.166 168.235C155.166 167.829 155.497 167.499 155.903 167.499H189.305C189.712 167.499 190.042 167.829 190.042 168.235C190.042 168.641 189.712 168.971 189.305 168.971V168.971V168.971Z" fill="#7700FF"/>
<path d="M197.583 121.118C197.583 105.562 184.425 97.0047 169.394 92.9516C150.123 87.7552 136.01 98.2704 141.205 121.118C142.382 126.296 145.199 132.344 148.684 137.517H176.346C185.587 131.506 197.583 133.192 197.583 121.118H197.583Z" fill="#7700FF"/>
<path d="M168.98 150.525C170.554 147.527 172.549 145.365 174.747 143.719H148.838C155.506 153.236 164.35 159.345 168.98 150.525Z" fill="#7700FF"/>
<path d="M165.991 104.465C167.654 104.465 169.002 105.812 169.002 107.474V113.493H162.979V107.474C162.979 105.812 164.327 104.465 165.991 104.465V104.465ZM170.508 113.493V107.474C170.508 104.981 168.486 102.96 165.991 102.96C163.496 102.96 161.473 104.981 161.473 107.474V113.493C159.81 113.493 158.461 114.84 158.461 116.502V124.025C158.461 125.687 159.81 127.034 161.473 127.034H170.508C172.171 127.034 173.52 125.687 173.52 124.025V116.502C173.52 114.84 172.171 113.493 170.508 113.493H170.508ZM161.473 114.997H170.508C171.34 114.997 172.014 115.671 172.014 116.502V124.025C172.014 124.856 171.34 125.53 170.508 125.53H161.473C160.641 125.53 159.967 124.856 159.967 124.025V116.502C159.967 115.671 160.641 114.997 161.473 114.997V114.997Z" fill="white"/>
<path d="M122.952 139.503C122.589 142.533 123.859 145.176 125.788 145.407C127.718 145.638 129.576 143.369 129.939 140.339C130.098 139.013 129.944 137.761 129.559 136.753L130.937 123.896L124.885 123.379L124.169 136.108C123.557 136.997 123.111 138.177 122.952 139.503V139.503Z" fill="#FFB6B6"/>
<path d="M124.404 62.8025C124.404 62.8025 130.995 60.9208 132.408 63.7434C133.82 66.566 137.116 103.73 137.116 103.73L130.76 133.395L123.462 131.485L127.229 101.378L122.05 78.7972L124.404 62.8025Z" fill="#AAFEE1"/>
<path d="M27.5423 153.05C42.7536 153.05 55.0847 140.729 55.0847 125.53C55.0847 110.331 42.7536 98.0094 27.5423 98.0094C12.3311 98.0094 0 110.331 0 125.53C0 140.729 12.3311 153.05 27.5423 153.05Z" fill="#7700FF"/>
<path d="M27.5424 113.21C29.488 113.21 31.0652 114.786 31.0652 116.73V123.77H24.0195V116.73C24.0195 114.785 25.5967 113.21 27.5424 113.21V113.21ZM32.8266 123.77V116.73C32.8266 113.813 30.4608 111.449 27.5424 111.449C24.6239 111.449 22.2581 113.813 22.2581 116.73V123.77C20.3124 123.77 18.7352 125.346 18.7352 127.29V136.09C18.7352 138.034 20.3124 139.61 22.2581 139.61H32.8266C34.7723 139.61 36.3495 138.034 36.3495 136.09V127.29C36.3495 125.346 34.7723 123.77 32.8266 123.77H32.8266V123.77ZM22.2581 125.53H32.8266C33.7994 125.53 34.5881 126.318 34.5881 127.29V136.09C34.5881 137.062 33.7995 137.85 32.8266 137.85H22.2581C21.2853 137.85 20.4966 137.062 20.4966 136.09V127.29C20.4966 126.318 21.2853 125.53 22.2581 125.53V125.53Z" fill="white"/>
</g>
<defs>
<clipPath id="clip0_8_254">
<rect width="266" height="241" fill="white"/>
</clipPath>
</defs>
</svg>
