<svg width="127" height="102" viewBox="0 0 127 102" fill="none" xmlns="http://www.w3.org/2000/svg">
<g clip-path="url(#clip0_8_277)">
<path d="M84.8573 22.3422C84.8387 22.3454 84.8109 22.3501 84.7771 22.3558C84.1162 22.466 80.1206 23.0873 76.0922 21.5408C74.3857 20.8856 74.9678 20.7224 71.167 18.4446C66.711 15.7743 65.5675 15.7929 65.2356 14.5478C64.5731 12.0614 68.1111 8.15279 70.4529 8.41014C71.0694 8.47789 71.7297 8.84833 72.7567 8.59715C72.9824 8.54197 73.9701 8.30039 74.4516 7.47643C74.8812 6.7414 74.5173 6.21117 74.6901 5.60834C75.1435 4.02599 78.9234 3.23631 82.2373 3.79426C84.1433 4.11517 85.6258 4.99128 88.513 6.73041C93.5383 9.75741 96.0509 11.2709 96.6156 13.5898C97.1508 15.7876 95.8662 16.7346 96.8005 19.0874C97.6704 21.278 99.0522 21.1317 99.5277 22.9039C100.293 25.7556 97.4529 28.8855 96.2699 30.1893C94.9729 31.6187 93.7324 32.4032 92.0856 33.4447C90.0186 34.752 88.9852 35.4057 87.7426 35.3392C85.4898 35.2186 78.7956 35.629 78.7082 33.7502C78.6755 33.0461 70.5566 33.6226 74.5544 26.0421C75.0447 25.1123 84.6508 26.1055 84.7776 25.5713" fill="#2F2E41"/>
<path d="M88.7453 27.193L95.6503 37.5729L75.8296 41.6125L77.0921 28.6172L88.7453 27.193Z" fill="#FFB6B6"/>
<path opacity="0.1" d="M88.7453 27.193L95.6503 37.5729L75.8296 41.6125L77.0921 28.6172L88.7453 27.193Z" fill="black"/>
<path d="M74.345 34.8799L95.7228 33.9822L105.224 39.2187L104.779 72.8818L114.725 91.8827L64.5469 82.3074L68.4068 67.9445L66.6253 37.7225L74.345 34.8799Z" fill="#7700FF"/>
<path d="M0.575725 100.276C-0.106774 99.1923 -0.187375 97.8527 0.360159 96.6931L8.4966 79.4642C9.10384 78.1784 10.4093 77.3476 11.8223 77.3476H114.592C115.965 77.3476 117.215 78.1091 117.853 79.3351L126.574 96.0892C127.177 97.2473 127.138 98.6075 126.468 99.728C125.799 100.848 124.625 101.52 123.327 101.525L3.70029 102H3.68532C2.41716 102 1.25546 101.356 0.575726 100.276H0.575725Z" fill="white"/>
<path d="M0.575725 100.276C-0.106774 99.1923 -0.187375 97.8527 0.360159 96.6931L8.4966 79.4642C9.10384 78.1784 10.4093 77.3476 11.8223 77.3476H114.592C115.965 77.3476 117.215 78.1091 117.853 79.3351L126.574 96.0892C127.177 97.2473 127.138 98.6075 126.468 99.728C125.799 100.848 124.625 101.52 123.327 101.525L3.70029 102H3.68532C2.41716 102 1.25546 101.356 0.575726 100.276H0.575725ZM11.8223 77.7372C10.5576 77.7372 9.38919 78.4808 8.84568 79.6316L0.709242 96.8605C0.219155 97.8983 0.291262 99.0973 0.902157 100.068C1.5106 101.035 2.55023 101.61 3.68538 101.61H3.69878L123.326 101.136C124.487 101.131 125.538 100.53 126.137 99.527C126.736 98.5242 126.772 97.3067 126.232 96.2703L117.511 79.516C116.94 78.4188 115.821 77.7372 114.592 77.7372H11.8223H11.8223Z" fill="#3F3D56"/>
<path d="M105.024 95.4135L62.6136 92.475C61.9874 92.4316 61.488 92.0062 61.3414 91.3912C61.1947 90.7762 61.4477 90.1686 61.9858 89.8432L71.3639 84.1723C71.6021 84.0283 71.8752 83.9583 72.1521 83.9717L108.837 85.6523C109.322 85.6743 109.755 85.9413 109.995 86.3663C110.236 86.7912 110.244 87.3028 110.016 87.7349L106.363 94.6637C106.118 95.1288 105.638 95.4169 105.12 95.4169C105.088 95.4169 105.056 95.4157 105.024 95.4135V95.4135Z" fill="#3F3D56"/>
<path d="M62.2458 90.7606L104.482 93.6781L107.822 86.4218L71.6065 84.9905L62.2458 90.7606Z" fill="white"/>
<path d="M83.0297 30.6895C90.0392 30.6895 95.7215 24.9629 95.7215 17.8987C95.7215 10.8346 90.0392 5.10795 83.0297 5.10795C76.0202 5.10795 70.3379 10.8346 70.3379 17.8987C70.3379 24.9629 76.0202 30.6895 83.0297 30.6895Z" fill="#FFB6B6"/>
<path d="M87.1177 18.7264C87.0991 18.7296 87.0712 18.7344 87.0374 18.74C86.3766 18.8503 82.3809 19.4716 78.3525 17.9251C76.646 17.2699 77.2281 17.1066 73.4274 14.8289C68.9714 12.1585 67.8278 12.1772 67.496 10.932C66.8334 8.44567 70.3714 4.53706 72.7133 4.7944C73.3298 4.86216 73.9901 5.23259 75.0171 4.98141C75.2427 4.92623 76.2304 4.68465 76.7119 3.86069C77.1415 3.12566 76.7777 2.59543 76.9504 1.9926C77.4039 0.410249 81.1837 -0.379429 84.4976 0.178521C86.4037 0.499435 87.8862 1.37555 90.7734 3.11468C95.7986 6.14167 98.3112 7.65518 98.8759 9.97403C99.4112 12.1719 98.1265 13.1189 99.0608 15.4716C99.9308 17.6623 101.313 17.516 101.788 19.2882C102.553 22.1399 99.7133 25.2697 98.5302 26.5735C97.2332 28.003 95.9928 28.7875 94.346 29.829C92.279 31.1363 91.2455 31.7899 90.003 31.7234C87.7502 31.6029 85.5094 29.5454 85.4221 27.6666C85.3894 26.9624 85.6809 26.7513 86.4022 24.3307C86.7027 23.3223 86.9112 22.4897 87.0379 21.9556" fill="#2F2E41"/>
<path d="M75.5185 86.7755L75.7456 85.3605L88.3457 61.0903C88.5544 60.6883 89.0488 60.5323 89.4477 60.7426C89.8466 60.953 90.0013 61.4512 89.7926 61.8532L77.1981 86.1127L76.1685 87.1182C76.0467 87.2365 75.871 87.2619 75.721 87.1828C75.5711 87.1038 75.4917 86.9439 75.5185 86.7755H75.5185Z" fill="#3F3D56"/>
<path d="M84.1072 71.3343C85.5288 71.604 86.8656 72.2129 88.0057 73.11L88.0699 73.1239L88.0829 73.0595L101.815 75.2272L100.82 56.8193L111.228 51.0746L108.768 82.1902C108.235 84.1774 106.189 85.3379 104.227 84.7656L86.7462 79.6983L86.7898 79.4815L86.7287 79.4649C85.3316 79.8446 83.8646 79.8816 82.4505 79.5727C78.9029 78.8491 76.3977 76.4179 76.8549 74.1426C77.3122 71.8674 80.5584 70.61 84.1072 71.3343V71.3343Z" fill="#FFB6B6"/>
<path d="M93.4959 42.5102L105.224 39.2187C105.224 39.2187 111.385 43.7819 112.127 48.7191C112.215 49.3063 112.46 76.6589 112.201 77.3702C110.283 82.6394 99.7311 74.2283 99.7311 74.2283L93.4959 42.5102Z" fill="#7700FF"/>
<path d="M42.6252 91.6716L41.4093 90.6214H41.4092C41.2282 90.4649 41.0082 90.3613 40.7728 90.3217L13.682 85.7713C13.0637 85.6675 12.607 85.2174 12.49 84.5968C12.373 83.9761 12.6343 83.3886 13.1719 83.0635L22.8366 77.2195C23.1596 77.0242 23.5397 76.9627 23.9075 77.0464L58.2564 84.8672C58.9241 85.0192 59.3698 85.563 59.3917 86.2526C59.4136 86.9422 59.0033 87.5137 58.3464 87.7084L43.9846 91.9654C43.8483 92.0059 43.7094 92.0256 43.5716 92.0256C43.2288 92.0256 42.8933 91.9033 42.6252 91.6716V91.6716Z" fill="#3F3D56"/>
<path d="M29.5789 57.7333C30.9217 58.2753 32.1162 59.1334 33.0625 60.236L33.1228 60.2622L33.1478 60.2016L46.2041 65.0075L60.1446 42.26L67.8513 47.0735L51.6877 73.1953C50.7833 75.041 48.5527 75.7803 46.7378 74.8361L30.5611 66.4539L30.6456 66.2498L30.5888 66.2216C29.1453 66.3215 27.6989 66.0716 26.3709 65.4926C23.0294 64.0906 21.0386 61.2166 21.9243 59.0735C22.81 56.9305 26.2363 56.3303 29.5789 57.7333L29.5789 57.7333Z" fill="#FFB6B6"/>
<path d="M75.0991 46.3666L68.9331 37.0741C68.9331 37.0741 61.5957 38.5378 58.5732 42.4947C58.1954 42.9893 45.2176 61.9579 45.1339 62.7857C44.5487 68.5803 59.4643 71.2954 59.4643 71.2954L75.0991 46.3666V46.3666Z" fill="#7700FF"/>
<path d="M41.9541 91.9508L10.8998 87.6251C9.86043 87.4805 9.0026 86.7299 8.71424 85.7132L1.58188 60.5553C1.3402 59.7026 1.52063 58.8197 2.07691 58.1327C2.63318 57.4457 3.45506 57.0906 4.33267 57.1581L35.6199 59.5739C36.7518 59.6613 37.702 60.4646 37.9845 61.5726L44.8839 88.6404C45.104 89.5042 44.8839 90.4173 44.2948 91.0828C43.7876 91.656 43.0684 91.9761 42.3187 91.9761C42.1978 91.9761 42.0759 91.9677 41.9541 91.9508V91.9508Z" fill="#3F3D56"/>
<path d="M12.3847 98.661C18.6723 98.661 23.7695 93.5882 23.7695 87.3305C23.7695 81.0729 18.6723 76 12.3847 76C6.09712 76 1 81.0729 1 87.3305C1 93.5882 6.09712 98.661 12.3847 98.661Z" fill="#7700FF"/>
<path d="M12.3847 82.2581C13.189 82.2581 13.8409 82.907 13.8409 83.7074V86.6059H10.9285V83.7074C10.9285 82.907 11.5805 82.2581 12.3847 82.2581V82.2581ZM14.569 86.6059V83.7074C14.569 82.5068 13.5911 81.5335 12.3847 81.5335C11.1784 81.5335 10.2004 82.5068 10.2004 83.7074V86.6059C9.39622 86.6059 8.74426 87.2547 8.74426 88.0551V91.6783C8.74426 92.4787 9.39622 93.1275 10.2004 93.1275H14.569C15.3732 93.1275 16.0252 92.4787 16.0252 91.6783V88.0551C16.0252 87.2547 15.3732 86.6059 14.569 86.6059H14.569V86.6059ZM10.2005 87.3305H14.569C14.9711 87.3305 15.2971 87.6549 15.2971 88.0551V91.6783C15.2971 92.0785 14.9711 92.4029 14.569 92.4029H10.2005C9.79834 92.4029 9.47236 92.0785 9.47236 91.6783V88.0551C9.47236 87.6549 9.79834 87.3305 10.2005 87.3305V87.3305Z" fill="white"/>
</g>
<defs>
<clipPath id="clip0_8_277">
<rect width="127" height="102" fill="white"/>
</clipPath>
</defs>
</svg>
