<svg width="159" height="126" viewBox="0 0 159 126" fill="none" xmlns="http://www.w3.org/2000/svg">
<path d="M47.9509 15.3553C22.6411 29.9201 19.6225 56.7563 25.484 82.0534C32.9991 114.487 61.8036 124.832 94.672 96.0077C102.121 89.475 109.628 79.7837 115.156 69.9533L92.232 30.381C74.7949 22.7903 67.5959 4.05035 47.9509 15.3553Z" fill="#7700FF"/>
<g clip-path="url(#clip0_2_26)">
<path d="M115.086 111.117H56.415C55.0243 111.115 53.6911 110.566 52.7078 109.588C51.7245 108.611 51.1713 107.286 51.1698 105.903V21.3308C51.1713 19.9485 51.7245 18.6233 52.7078 17.6459C53.6911 16.6685 55.0243 16.1187 56.415 16.1172H115.086C116.477 16.1187 117.81 16.6685 118.793 17.6459C119.777 18.6233 120.33 19.9485 120.331 21.3308V105.904C120.33 107.286 119.776 108.611 118.793 109.588C117.81 110.566 116.477 111.115 115.086 111.117V111.117Z" fill="#EDEBFF"/>
<path d="M115.19 107.791H56.3122C55.8835 107.79 55.4725 107.621 55.1694 107.319C54.8663 107.018 54.6958 106.61 54.6953 106.184V21.0505C54.6958 20.6245 54.8663 20.216 55.1694 19.9147C55.4725 19.6134 55.8835 19.4439 56.3122 19.4435H115.19C115.618 19.4439 116.029 19.6134 116.332 19.9147C116.635 20.216 116.806 20.6245 116.806 21.0505V106.184C116.806 106.61 116.635 107.018 116.332 107.319C116.029 107.621 115.618 107.79 115.19 107.791Z" fill="white"/>
<path d="M85.5278 18.1575C85.7743 18.1575 85.9741 17.9589 85.9741 17.7139C85.9741 17.4689 85.7743 17.2703 85.5278 17.2703C85.2813 17.2703 85.0815 17.4689 85.0815 17.7139C85.0815 17.9589 85.2813 18.1575 85.5278 18.1575Z" fill="white"/>
<path d="M85.7503 86.6732C88.8959 86.6732 91.446 84.1386 91.446 81.0119C91.446 77.8852 88.8959 75.3505 85.7503 75.3505C82.6047 75.3505 80.0546 77.8852 80.0546 81.0119C80.0546 84.1386 82.6047 86.6732 85.7503 86.6732Z" fill="#EDEBFF"/>
<path d="M89.3164 70.1459H82.1845L77.8791 49.2115C77.7685 48.1184 77.8896 47.0144 78.2345 45.9707C78.5794 44.9269 79.1406 43.9666 79.8818 43.1516C80.623 42.3366 81.5277 41.685 82.5378 41.2388C83.5478 40.7927 84.6407 40.5618 85.746 40.5612C86.8513 40.5605 87.9444 40.7901 88.955 41.235C89.9656 41.68 90.8711 42.3305 91.6133 43.1446C92.3554 43.9588 92.9177 44.9184 93.2639 45.9618C93.6101 47.0051 93.7325 48.109 93.6233 49.2022L89.3164 70.1459Z" fill="#EDEBFF"/>
<path d="M113.773 42.0071H139.839C141.097 42.0071 142.318 42.4325 143.3 43.2134C144.282 43.9942 144.968 45.0841 145.245 46.3037L158.416 104.372C158.56 105.006 158.562 105.663 158.424 106.297C158.285 106.932 158.008 107.528 157.613 108.045C157.217 108.562 156.713 108.987 156.135 109.29C155.557 109.592 154.92 109.766 154.268 109.798L127.471 111.11C126.036 111.18 124.624 110.729 123.499 109.841C122.374 108.953 121.613 107.688 121.357 106.283L113.887 65.2276L112.473 57.4619L110.387 46.0015C110.298 45.5106 110.319 45.0062 110.448 44.5242C110.577 44.0422 110.812 43.5945 111.135 43.213C111.458 42.8315 111.862 42.5256 112.318 42.3171C112.774 42.1086 113.271 42.0026 113.773 42.0068V42.0071Z" fill="#00163A"/>
<path d="M136.408 43.259H139.451C140.325 43.259 141.172 43.556 141.853 44.1008C142.533 44.6456 143.006 45.4054 143.192 46.254L155.834 103.849C155.907 104.18 155.907 104.524 155.834 104.855C155.761 105.187 155.617 105.499 155.412 105.77C155.207 106.041 154.945 106.265 154.644 106.427C154.344 106.588 154.012 106.683 153.671 106.705L126.961 108.445C126.208 108.494 125.462 108.266 124.867 107.804C124.272 107.341 123.87 106.677 123.736 105.939L112.948 46.4087C112.878 46.0234 112.894 45.6275 112.995 45.2491C113.096 44.8706 113.279 44.5188 113.532 44.2184C113.784 43.918 114.1 43.6764 114.457 43.5107C114.814 43.3449 115.203 43.259 115.597 43.259H118.484C118.763 43.2588 119.035 43.3503 119.257 43.5192C119.479 43.6882 119.638 43.9252 119.711 44.1934V44.1934C119.775 44.4302 119.916 44.6394 120.111 44.7886C120.307 44.9377 120.547 45.0185 120.794 45.0184H134.497C134.98 45.0182 135.445 44.8369 135.799 44.5108C136.154 44.1847 136.371 43.7377 136.408 43.2591L136.408 43.259Z" fill="white"/>
<path d="M143.588 69.6617C146.733 69.6617 149.283 67.127 149.283 64.0004C149.283 60.8737 146.733 58.339 143.588 58.339C140.442 58.339 137.892 60.8737 137.892 64.0004C137.892 67.127 140.442 69.6617 143.588 69.6617Z" fill="#7700FF"/>
<path d="M147.154 53.1342H140.022L135.716 32.1998C135.606 31.1067 135.727 30.0027 136.072 28.959C136.417 27.9152 136.978 26.9549 137.719 26.1399C138.46 25.3249 139.365 24.6733 140.375 24.2271C141.385 23.781 142.478 23.5501 143.583 23.5495C144.688 23.5488 145.782 23.7784 146.792 24.2233C147.803 24.6683 148.708 25.3188 149.45 26.133C150.193 26.9471 150.755 27.9067 151.101 28.9501C151.447 29.9934 151.57 31.0973 151.46 32.1905L147.154 53.1342Z" fill="#7700FF"/>
</g>
<defs>
<clipPath id="clip0_2_26">
<rect width="107.355" height="95" fill="white" transform="translate(51.1702 16.117)"/>
</clipPath>
</defs>
</svg>
