<svg width="110" height="106" viewBox="0 0 110 106" fill="none" xmlns="http://www.w3.org/2000/svg">
<g clip-path="url(#clip0_327_1176)">
<path d="M76.5868 70.5306C90.4232 72.643 99.8242 62.0838 105.473 49.2452C112.716 32.7849 105.283 18.785 84.2538 20.3102C79.4878 20.6559 73.7255 22.3432 68.65 24.7458L64.8881 49.3866C68.978 58.4338 65.8472 68.8911 76.5868 70.5306Z" fill="#7700FF"/>
<path d="M77.6261 105.431H44.7262C39.7916 105.431 35.777 101.406 35.777 96.4576V9.24859C35.777 4.30058 39.7916 0.275032 44.7262 0.275032H77.6261C82.5605 0.275032 86.5751 4.30058 86.5751 9.24859C87.1876 44.2691 88.2319 83.4865 86.5751 96.4576C86.5751 101.406 82.5605 105.431 77.6261 105.431Z" fill="#3F3D56"/>
<path d="M87.034 32.3534C86.8252 32.3534 86.6554 32.5237 86.6554 32.733V44.881C86.6554 45.0904 86.8252 45.2607 87.034 45.2607C87.2428 45.2607 87.4126 45.0904 87.4126 44.881V32.733C87.4126 32.5237 87.2428 32.3534 87.034 32.3534Z" fill="#3F3D56"/>
<path d="M83.4824 10.3435L85.7234 96.4562C85.7234 100.763 82.3804 104.286 78.1534 104.559H78.1515C78.089 104.563 78.0266 104.567 77.9622 104.569C77.8505 104.574 77.7388 104.576 77.6253 104.576C77.6253 104.576 77.2088 104.546 76.4478 104.489C75.6793 104.432 74.5606 104.347 73.1654 104.235C72.7471 104.202 72.306 104.166 71.8404 104.128C70.9128 104.052 69.8944 103.969 68.8021 103.874C68.3668 103.838 67.9162 103.798 67.4562 103.758C65.1052 103.555 62.4721 103.318 59.6951 103.048C59.2256 103.005 58.7524 102.959 58.2753 102.912C58.1504 102.898 36.6289 97.4736 36.6289 96.4562V9.24866C36.6289 4.76339 40.254 1.12848 44.727 1.12848H49.5617C50.334 1.12848 50.9549 1.73208 51.0212 2.50462C51.0268 2.55587 51.0325 2.60712 51.042 2.65837C51.1821 3.43471 51.8919 3.97567 52.6794 3.97567H69.6729C70.4604 3.97567 71.1702 3.43471 71.3103 2.65837C71.3198 2.60712 71.3255 2.55588 71.3312 2.50462C71.3974 1.73208 72.0183 1.12848 72.7906 1.12848H77.6253C82.0984 1.12848 83.4824 5.85824 83.4824 10.3435Z" fill="white"/>
<path d="M35.5877 23.2424C35.3789 23.2424 35.2091 23.4126 35.2091 23.622V26.659C35.2091 26.8684 35.3789 27.0386 35.5877 27.0386C35.7965 27.0386 35.9663 26.8684 35.9663 26.659V23.622C35.9663 23.4126 35.7965 23.2424 35.5877 23.2424Z" fill="#3F3D56"/>
<path d="M35.5877 32.3534C35.3789 32.3534 35.2091 32.5237 35.2091 32.733V38.6172C35.2091 38.8266 35.3789 38.9968 35.5877 38.9968C35.7965 38.9968 35.9663 38.8266 35.9663 38.6172V32.733C35.9663 32.5237 35.7965 32.3534 35.5877 32.3534Z" fill="#3F3D56"/>
<path d="M35.5877 40.7051C35.3789 40.7051 35.2091 40.8754 35.2091 41.0848V46.969C35.2091 47.1783 35.3789 47.3486 35.5877 47.3486C35.7965 47.3486 35.9663 47.1783 35.9663 46.969V41.0848C35.9663 40.8754 35.7965 40.7051 35.5877 40.7051Z" fill="#3F3D56"/>
<path d="M49.4373 2.45791H42.1821C42.1469 2.45791 42.1184 2.48649 42.1184 2.52174V3.34314C42.1184 3.37839 42.1469 3.40697 42.1821 3.40697H49.4373C49.4725 3.40697 49.501 3.37839 49.501 3.34314V2.52174C49.501 2.48649 49.4725 2.45791 49.4373 2.45791Z" fill="#E6E6E6"/>
<path d="M73.9869 3.40697C74.4051 3.40697 74.7441 3.06705 74.7441 2.64772C74.7441 2.2284 74.4051 1.88847 73.9869 1.88847C73.5687 1.88847 73.2297 2.2284 73.2297 2.64772C73.2297 3.06705 73.5687 3.40697 73.9869 3.40697Z" fill="#E6E6E6"/>
<path d="M76.0692 3.40697C76.4874 3.40697 76.8264 3.06705 76.8264 2.64772C76.8264 2.2284 76.4874 1.88847 76.0692 1.88847C75.651 1.88847 75.312 2.2284 75.312 2.64772C75.312 3.06705 75.651 3.40697 76.0692 3.40697Z" fill="#E6E6E6"/>
<path d="M78.1515 3.40697C78.5697 3.40697 78.9087 3.06705 78.9087 2.64772C78.9087 2.2284 78.5697 1.88847 78.1515 1.88847C77.7333 1.88847 77.3943 2.2284 77.3943 2.64772C77.3943 3.06705 77.7333 3.40697 78.1515 3.40697Z" fill="#E6E6E6"/>
<path d="M60.3814 46.0807C66.3318 46.0807 71.1555 41.2439 71.1555 35.2773C71.1555 29.3108 66.3318 24.474 60.3814 24.474C54.4311 24.474 49.6074 29.3108 49.6074 35.2773C49.6074 41.2439 54.4311 46.0807 60.3814 46.0807Z" fill="#7700FF"/>
<path d="M61.0272 75.9871H13.0631C11.1322 75.9871 9.5614 74.4118 9.5614 72.4758V36.1082C9.5614 34.1722 11.1322 32.597 13.0631 32.597H61.0272C62.9581 32.597 64.5289 34.1722 64.5289 36.1082V72.4758C64.5289 74.4118 62.9581 75.9871 61.0272 75.9871Z" fill="white"/>
<path d="M61.0272 75.9871H13.0631C11.1322 75.9871 9.5614 74.4118 9.5614 72.4758V36.1082C9.5614 34.1722 11.1322 32.597 13.0631 32.597H61.0272C62.9581 32.597 64.5289 34.1722 64.5289 36.1082V72.4758C64.5289 74.4118 62.9581 75.9871 61.0272 75.9871ZM13.0631 33.1833C11.4547 33.1833 10.1462 34.4954 10.1462 36.1082V72.4758C10.1462 74.0886 11.4547 75.4007 13.0631 75.4007H61.0272C62.6356 75.4007 63.9441 74.0886 63.9441 72.4758V36.1082C63.9441 34.4954 62.6356 33.1833 61.0272 33.1833H13.0631Z" fill="#3F3D56"/>
<path d="M55.7575 36.9946C56.2419 36.9946 56.6346 36.6008 56.6346 36.1151C56.6346 35.6293 56.2419 35.2355 55.7575 35.2355C55.2731 35.2355 54.8804 35.6293 54.8804 36.1151C54.8804 36.6008 55.2731 36.9946 55.7575 36.9946Z" fill="#3F3D56"/>
<path d="M58.0965 36.9946C58.5809 36.9946 58.9736 36.6008 58.9736 36.1151C58.9736 35.6293 58.5809 35.2355 58.0965 35.2355C57.6121 35.2355 57.2194 35.6293 57.2194 36.1151C57.2194 36.6008 57.6121 36.9946 58.0965 36.9946Z" fill="#3F3D56"/>
<path d="M60.4356 36.9946C60.9201 36.9946 61.3128 36.6008 61.3128 36.1151C61.3128 35.6293 60.9201 35.2355 60.4356 35.2355C59.9512 35.2355 59.5585 35.6293 59.5585 36.1151C59.5585 36.6008 59.9512 36.9946 60.4356 36.9946Z" fill="#3F3D56"/>
<path d="M14.5318 50.3341C14.29 50.3341 14.0933 50.5314 14.0933 50.7739C14.0933 50.8922 14.1388 51.0015 14.2215 51.0823C14.3048 51.1679 14.4141 51.2137 14.5318 51.2137H59.8508C60.0926 51.2137 60.2893 51.0164 60.2893 50.7739C60.2893 50.6557 60.2438 50.5463 60.1611 50.4656C60.0778 50.38 59.9685 50.3341 59.8508 50.3341H14.5318Z" fill="#E6E6E6"/>
<path d="M51.6642 50.1876V51.3603H14.5319C14.3711 51.3603 14.2249 51.2958 14.1196 51.1873C14.0115 51.0817 13.9471 50.9352 13.9471 50.7739C13.9471 50.4514 14.2103 50.1876 14.5319 50.1876H51.6642L51.6642 50.1876Z" fill="#7700FF"/>
<path d="M59.1199 47.9887H53.2723C52.6274 47.9887 52.1028 47.4628 52.1028 46.816C52.1028 46.1693 52.6274 45.6433 53.2723 45.6433H59.1199C59.7648 45.6433 60.2894 46.1693 60.2894 46.816C60.2894 47.4628 59.7648 47.9887 59.1199 47.9887Z" fill="#E6E6E6"/>
<path d="M20.818 41.832H14.9704C14.3256 41.832 13.8009 41.3061 13.8009 40.6593C13.8009 40.0125 14.3256 39.4866 14.9704 39.4866H20.818C21.4629 39.4866 21.9875 40.0125 21.9875 40.6593C21.9875 41.3061 21.4629 41.832 20.818 41.832Z" fill="#E6E6E6"/>
<path d="M14.5318 63.5271C14.29 63.5271 14.0933 63.7244 14.0933 63.9669C14.0933 64.0851 14.1388 64.1945 14.2215 64.2752C14.3048 64.3608 14.4141 64.4066 14.5318 64.4066H59.8508C60.0926 64.4066 60.2893 64.2094 60.2893 63.9669C60.2893 63.8486 60.2438 63.7392 60.1611 63.6585C60.0778 63.5729 59.9685 63.5271 59.8508 63.5271H14.5318Z" fill="#E6E6E6"/>
<path d="M29.1509 63.3805V64.5532H14.5319C14.3711 64.5532 14.2249 64.4887 14.1196 64.3802C14.0115 64.2747 13.9471 64.1281 13.9471 63.9669C13.9471 63.6444 14.2103 63.3805 14.5319 63.3805H29.1509V63.3805Z" fill="#7700FF"/>
<path d="M59.1199 61.1817H53.2723C52.6274 61.1817 52.1028 60.6557 52.1028 60.009C52.1028 59.3622 52.6274 58.8363 53.2723 58.8363H59.1199C59.7648 58.8363 60.2894 59.3622 60.2894 60.009C60.2894 60.6557 59.7648 61.1817 59.1199 61.1817Z" fill="#E6E6E6"/>
</g>
<defs>
<clipPath id="clip0_327_1176">
<rect width="110" height="105" fill="white" transform="translate(0 0.116211)"/>
</clipPath>
</defs>
</svg>
