<svg width="148" height="106" viewBox="0 0 148 106" fill="none" xmlns="http://www.w3.org/2000/svg">
<g clip-path="url(#clip0_327_1210)">
<path d="M120.038 86.2162H4.48616C2.01496 86.2162 0.00439453 84.2103 0.00439453 81.7446V67.8688H124.519V81.7446C124.519 84.2103 122.509 86.2162 120.038 86.2162Z" fill="#7700FF"/>
<path d="M77.2171 83.8952H47.75V104.895H77.2171V83.8952Z" fill="#7700FF"/>
<path d="M78.9895 102.243H45.9775V104.895H78.9895V102.243Z" fill="#7700FF"/>
<path d="M124.409 73.7267H0.0045166V3.18483C0.0045166 1.49282 1.38427 0.116211 3.08013 0.116211H121.333C123.029 0.116211 124.409 1.49282 124.409 3.18483V73.7267Z" fill="#3F3D56"/>
<path d="M62.4835 2.65831C62.973 2.65831 63.3697 2.26244 63.3697 1.7741C63.3697 1.28577 62.973 0.889893 62.4835 0.889893C61.9941 0.889893 61.5973 1.28577 61.5973 1.7741C61.5973 2.26244 61.9941 2.65831 62.4835 2.65831Z" fill="white"/>
<path d="M121.418 3.32147H2.88464V69.8583H121.418V3.32147Z" fill="white"/>
<path d="M107.545 53.5912C113.127 53.5912 117.651 49.0768 117.651 43.5081C117.651 37.9393 113.127 33.4249 107.545 33.4249C101.964 33.4249 97.439 37.9393 97.439 43.5081C97.439 49.0768 101.964 53.5912 107.545 53.5912Z" fill="#7700FF"/>
<path d="M119.192 48.9497C118.999 48.6247 118.163 48.9727 118.01 48.6778C117.857 48.3839 118.633 47.9361 119.077 46.9131C119.157 46.7286 119.661 45.5661 119.288 45.2074C118.58 44.5275 115.343 47.3334 114.21 46.4152C113.961 46.2137 113.788 45.8114 113.035 45.1582C112.736 44.8984 112.555 44.7811 112.38 44.8247C112.131 44.8867 112.111 45.2186 111.845 45.8712C111.445 46.85 111.209 46.7909 110.976 47.5718C110.803 48.1515 110.842 48.4885 110.639 48.5541C110.351 48.6471 110.086 48.0322 109.721 48.0872C109.349 48.1434 109.124 48.8593 109.053 49.3953C108.919 50.4012 109.29 51.065 109.495 51.7629C109.718 52.5214 109.85 53.6748 109.335 55.3077L104.238 69.6367C105.363 66.6965 108.621 58.6364 109.991 55.6412C110.386 54.7766 110.822 53.8996 111.718 53.5534C112.581 53.2202 113.766 53.4191 115.277 53.0561C115.453 53.0137 115.942 52.8894 116.004 52.6021C116.055 52.3646 115.767 52.232 115.811 52.0096C115.871 51.7112 116.437 51.7075 117.133 51.3633C117.623 51.1205 117.929 50.8319 118.192 50.5836C118.271 50.5088 119.449 49.3824 119.192 48.9498H119.192L119.192 48.9497Z" fill="#E6E6E6"/>
<path d="M99.1379 56.4931C98.9222 56.494 98.8523 57.0036 98.6629 56.9938C98.4741 56.9839 98.4779 56.4745 98.1026 55.9621C98.035 55.8697 97.6086 55.2874 97.3244 55.3666C96.7858 55.5169 97.2321 57.9117 96.4535 58.2015C96.2827 58.2651 96.0346 58.2341 95.4962 58.4142C95.282 58.4858 95.1721 58.5406 95.143 58.6389C95.1018 58.7785 95.2594 58.884 95.5035 59.2028C95.8696 59.6809 95.7723 59.7797 96.0893 60.119C96.3246 60.3709 96.5018 60.4488 96.4753 60.5674C96.438 60.7352 96.0591 60.6876 95.9809 60.8821C95.9011 61.0807 96.1883 61.3974 96.4315 61.5869C96.8878 61.9425 97.3211 61.9527 97.7237 62.0536C98.1611 62.1632 98.7667 62.4312 99.4214 63.1545L104.999 69.785C103.878 68.3856 100.853 64.4644 99.7746 62.9298C99.4633 62.4867 99.1578 62.02 99.2461 61.4813C99.3311 60.9627 99.7708 60.4399 100.028 59.5954C100.058 59.4968 100.138 59.2212 100.015 59.1081C99.9125 59.0147 99.7642 59.1174 99.6676 59.0316C99.5379 58.9164 99.6995 58.6381 99.7309 58.198C99.7531 57.8877 99.6993 57.6547 99.653 57.4543C99.639 57.3939 99.4249 56.492 99.1379 56.4931V56.4931Z" fill="#E6E6E6"/>
<path d="M103.439 57.4566L103.31 56.2995L103.369 56.2118C103.644 55.8062 103.784 55.4101 103.785 55.0341C103.786 54.9744 103.783 54.9146 103.78 54.8537C103.769 54.6123 103.755 54.3123 103.912 53.9626C103.999 53.7676 104.246 53.3162 104.618 53.3721C104.718 53.386 104.793 53.4318 104.851 53.4855C104.859 53.4721 104.868 53.4586 104.877 53.4441C104.993 53.2681 105.084 53.1927 105.172 53.1201C105.24 53.0642 105.31 53.0067 105.42 52.8704C105.468 52.8106 105.505 52.7581 105.537 52.7139C105.633 52.5804 105.759 52.4212 105.98 52.424C106.216 52.4352 106.34 52.6301 106.422 52.7592C106.568 52.9894 106.635 53.1553 106.679 53.2653C106.694 53.3056 106.713 53.3508 106.722 53.3648C106.798 53.4765 107.417 53.3721 107.65 53.3341C108.174 53.2469 108.627 53.1715 108.814 53.5011C108.948 53.7369 108.849 54.0486 108.51 54.4525C108.404 54.5782 108.292 54.6738 108.192 54.7486C108.275 54.7978 108.349 54.8732 108.379 54.9917C108.449 55.2721 108.208 55.5531 107.661 55.828C107.525 55.8967 107.342 55.9884 107.086 56.0325C106.966 56.0532 106.857 56.0582 106.764 56.061C106.762 56.1146 106.749 56.1727 106.717 56.2325C106.621 56.4085 106.421 56.4923 106.119 56.4722C105.788 56.4549 105.515 56.3917 105.274 56.3364C105.064 56.2884 104.883 56.2476 104.741 56.2571C104.477 56.2783 104.274 56.4889 104.035 56.7621L103.439 57.4566H103.439V57.4566Z" fill="#E6E6E6"/>
<path d="M104.042 50.5676L102.953 50.9865L102.853 50.9514C102.39 50.7893 101.971 50.7546 101.606 50.8484C101.548 50.8633 101.491 50.8811 101.432 50.8993C101.201 50.9713 100.914 51.0609 100.535 50.9983C100.324 50.9629 99.8234 50.8391 99.7834 50.4666C99.7716 50.3666 99.7968 50.2821 99.8343 50.2131C99.8192 50.2084 99.8039 50.2034 99.7875 50.1982C99.5876 50.1312 99.4912 50.062 99.3984 49.9953C99.3271 49.9441 99.2536 49.8911 99.0936 49.8198C99.0234 49.7885 98.963 49.7656 98.9121 49.7462C98.7583 49.6874 98.5722 49.6068 98.5188 49.3926C98.4697 49.1617 98.6273 48.9928 98.7316 48.8809C98.9176 48.6812 99.0617 48.5751 99.1572 48.5047C99.1922 48.4791 99.2314 48.4501 99.2426 48.4376C99.3316 48.3358 99.0733 47.7649 98.9773 47.5494C98.76 47.066 98.5719 46.6477 98.8441 46.3838C99.0387 46.1949 99.3662 46.2117 99.8437 46.4362C99.9923 46.5062 100.113 46.5903 100.211 46.6675C100.238 46.5753 100.292 46.4849 100.4 46.4259C100.654 46.2867 100.987 46.4486 101.393 46.9066C101.494 47.0202 101.629 47.1734 101.737 47.4094C101.787 47.5207 101.82 47.6242 101.846 47.7132C101.898 47.7015 101.958 47.6989 102.024 47.7154C102.219 47.7634 102.351 47.9351 102.408 48.2309C102.475 48.5552 102.483 48.8347 102.491 49.0811C102.498 49.2962 102.504 49.4814 102.549 49.6162C102.637 49.8654 102.893 50.0081 103.218 50.169L104.042 50.5676L104.042 50.5676Z" fill="#E6E6E6"/>
<path d="M103.439 47.159L103.31 46.002L103.369 45.9143C103.644 45.5087 103.784 45.1126 103.785 44.7366C103.786 44.6768 103.783 44.617 103.78 44.5561C103.769 44.3148 103.755 44.0147 103.912 43.665C103.999 43.47 104.246 43.0186 104.618 43.0745C104.718 43.0885 104.793 43.1343 104.851 43.1879C104.859 43.1745 104.868 43.1611 104.877 43.1466C104.993 42.9706 105.084 42.8952 105.172 42.8225C105.24 42.7667 105.31 42.7091 105.42 42.5728C105.468 42.513 105.505 42.4605 105.537 42.4164C105.633 42.2828 105.759 42.1236 105.98 42.1264C106.216 42.1376 106.34 42.3326 106.422 42.4616C106.568 42.6918 106.635 42.8577 106.679 42.9678C106.694 43.008 106.713 43.0533 106.722 43.0672C106.798 43.179 107.417 43.0745 107.65 43.0365C108.174 42.9493 108.627 42.8739 108.814 43.2035C108.948 43.4393 108.849 43.751 108.51 44.155C108.404 44.2807 108.292 44.3762 108.192 44.4511C108.275 44.5002 108.349 44.5757 108.379 44.6941C108.449 44.9746 108.208 45.2556 107.661 45.5304C107.525 45.5992 107.342 45.6908 107.086 45.7349C106.966 45.7556 106.857 45.7606 106.764 45.7634C106.762 45.8171 106.749 45.8752 106.717 45.9349C106.621 46.1109 106.421 46.1947 106.119 46.1746C105.788 46.1573 105.515 46.0942 105.274 46.0388C105.064 45.9908 104.883 45.95 104.741 45.9595C104.477 45.9807 104.274 46.1914 104.035 46.4646L103.439 47.159H103.439V47.159Z" fill="#E6E6E6"/>
<path d="M104.626 69.6179L104.383 69.4659L104.324 69.186L104.383 69.4659L104.1 69.4983C104.095 69.4721 104.08 69.4117 104.056 69.3173C103.93 68.8 103.543 67.2256 103.22 64.7462C102.995 63.0154 102.868 61.236 102.842 59.4566C102.815 57.6745 102.9 56.3252 102.968 55.2408C103.019 54.4229 103.081 53.6441 103.142 52.8855C103.304 50.8586 103.458 48.944 103.344 46.8243C103.318 46.3511 103.266 45.3662 102.689 44.3181C102.354 43.7103 101.893 43.1706 101.319 42.7147L101.676 42.2666C102.31 42.7706 102.82 43.3684 103.192 44.0432C103.831 45.2053 103.889 46.2785 103.916 46.7942C104.032 48.9512 103.878 50.8843 103.713 52.9307C103.653 53.6866 103.591 54.462 103.54 55.2766C103.473 56.3509 103.389 57.6884 103.415 59.4477C103.441 61.2059 103.567 62.9635 103.789 64.6725C104.107 67.1206 104.488 68.6715 104.614 69.181C104.68 69.4531 104.694 69.5101 104.626 69.6179V69.6179Z" fill="#E6E6E6"/>
<path d="M100.267 43.6237C100.244 43.6237 100.22 43.6231 100.196 43.6214C99.7076 43.5952 99.2554 43.3036 98.8517 42.7549C98.6625 42.4968 98.5656 42.2024 98.3724 41.6152C98.3424 41.5247 98.1968 41.0655 98.1084 40.4336C98.0504 40.0208 98.0577 39.8481 98.1397 39.6956C98.2307 39.5258 98.378 39.4073 98.5437 39.3274C98.5365 39.2727 98.5423 39.2163 98.5661 39.1587C98.6638 38.9202 98.9237 38.9514 99.0642 38.9665C99.1353 38.9755 99.2241 38.9872 99.3198 38.9822C99.4705 38.9749 99.5514 38.9302 99.674 38.8632C99.7913 38.7989 99.9372 38.719 100.154 38.6749C100.58 38.5861 100.938 38.7067 101.056 38.7464C101.676 38.9526 101.982 39.4336 102.335 39.9906C102.406 40.1023 102.648 40.509 102.808 41.0666C102.923 41.4688 102.907 41.6476 102.872 41.7806C102.802 42.0538 102.635 42.2102 102.212 42.5555C101.77 42.9169 101.549 43.098 101.358 43.208C100.915 43.4633 100.637 43.6237 100.267 43.6237V43.6237V43.6237Z" fill="#E6E6E6"/>
<path d="M72.8922 33.3146V56.7462C72.8922 58.8183 71.2027 60.5041 69.1258 60.5041H11.0779C9.00099 60.5041 7.3114 58.8183 7.3114 56.7462V33.3146C7.3114 31.2424 9.00099 29.5567 11.0779 29.5567H69.1258C71.2027 29.5567 72.8922 31.2424 72.8922 33.3146Z" fill="white"/>
<path d="M72.8922 33.3146V56.7462C72.8922 58.8183 71.2027 60.5041 69.1258 60.5041H11.0779C9.00099 60.5041 7.3114 58.8183 7.3114 56.7462V33.3146C7.3114 31.2424 9.00099 29.5567 11.0779 29.5567H69.1258C71.2027 29.5567 72.8922 31.2424 72.8922 33.3146ZM69.1258 60.0619C70.9612 60.0619 72.4491 58.5774 72.4491 56.7462V44.9329C72.4491 36.685 65.7477 29.9988 57.481 29.9988H11.0779C9.24243 29.9988 7.75452 31.4833 7.75452 33.3146V56.7462C7.75452 58.5774 9.24243 60.0619 11.0779 60.0619H69.1258Z" fill="#3F3D56"/>
<path d="M33.3688 43.7132H25.787C25.5958 43.7132 25.4403 43.8683 25.4403 44.059C25.4403 44.2497 25.5958 44.4049 25.787 44.4049H33.3688C33.5599 44.4049 33.7154 44.2497 33.7154 44.059C33.7154 43.8683 33.5599 43.7132 33.3688 43.7132Z" fill="#7700FF"/>
<path d="M44.8898 43.7132H37.308C37.1168 43.7132 36.9613 43.8683 36.9613 44.059C36.9613 44.2497 37.1168 44.4049 37.308 44.4049H44.8898C45.0809 44.4049 45.2364 44.2497 45.2364 44.059C45.2364 43.8683 45.0809 43.7132 44.8898 43.7132Z" fill="#7700FF"/>
<path d="M33.3688 47.4946H25.787C25.5958 47.4946 25.4403 47.6497 25.4403 47.8404C25.4403 48.0311 25.5958 48.1863 25.787 48.1863H33.3688C33.5599 48.1863 33.7154 48.0311 33.7154 47.8404C33.7154 47.6497 33.5599 47.4946 33.3688 47.4946Z" fill="#7700FF"/>
<path d="M44.8898 47.4946H37.308C37.1168 47.4946 36.9613 47.6497 36.9613 47.8404C36.9613 48.0311 37.1168 48.1863 37.308 48.1863H44.8898C45.0809 48.1863 45.2364 48.0311 45.2364 47.8404C45.2364 47.6497 45.0809 47.4946 44.8898 47.4946Z" fill="#7700FF"/>
<path d="M56.7573 47.8404C56.7573 47.6497 56.6018 47.4946 56.4107 47.4946H48.8289C48.6377 47.4946 48.4822 47.6497 48.4822 47.8404C48.4822 48.0311 48.6377 48.1863 48.8289 48.1863H56.4107C56.6018 48.1863 56.7573 48.0311 56.7573 47.8404Z" fill="#7700FF"/>
<path d="M28.9376 40.6939C29.1288 40.6939 29.2842 40.5388 29.2842 40.348C29.2842 40.1573 29.1288 40.0022 28.9376 40.0022H21.3558C21.1647 40.0022 21.0092 40.1573 21.0092 40.348C21.0092 40.5388 21.1647 40.6939 21.3558 40.6939H28.9376Z" fill="#7700FF"/>
<path d="M51.266 40.5533H58.8478C59.0389 40.5533 59.1944 40.3981 59.1944 40.2074C59.1944 40.0167 59.0389 39.8616 58.8478 39.8616H51.266C51.0748 39.8616 50.9193 40.0167 50.9193 40.2074C50.9193 40.3981 51.0748 40.5533 51.266 40.5533Z" fill="#7700FF"/>
<path d="M32.1317 40.626H47.8505C48.0416 40.626 48.1971 40.4708 48.1971 40.2801C48.1971 40.0894 48.0416 39.9343 47.8505 39.9343H32.1317C31.9406 39.9343 31.785 40.0894 31.785 40.2801C31.785 40.4708 31.9406 40.626 32.1317 40.626Z" fill="#7700FF"/>
<path d="M38.3163 50.9301H30.7345C30.5433 50.9301 30.3878 51.0852 30.3878 51.2759C30.3878 51.4666 30.5433 51.6218 30.7345 51.6218H38.3163C38.5074 51.6218 38.6629 51.4666 38.6629 51.2759C38.6629 51.0852 38.5074 50.9301 38.3163 50.9301Z" fill="#7700FF"/>
<path d="M62.803 33.1379V56.5695C62.803 58.6417 61.1134 60.3274 59.0365 60.3274H35.5515C33.4746 60.3274 31.785 58.6417 31.785 56.5695V33.1379C31.785 31.0658 33.4746 29.38 35.5515 29.38H59.0365C61.1134 29.38 62.803 31.0658 62.803 33.1379Z" fill="white"/>
<path d="M62.803 33.1379V56.5695C62.803 58.6417 61.1134 60.3274 59.0365 60.3274H35.5515C33.4746 60.3274 31.785 58.6417 31.785 56.5695V33.1379C31.785 31.0658 33.4746 29.38 35.5515 29.38H59.0365C61.1134 29.38 62.803 31.0658 62.803 33.1379ZM57.5796 59.8853C60.2197 59.8853 62.3599 57.75 62.3599 55.1159V44.7562C62.3599 36.5084 55.6584 29.8221 47.3917 29.8221H35.5515C33.7161 29.8221 32.2282 31.3067 32.2282 33.1379V53.3003C32.2282 56.9371 35.1831 59.8853 38.8282 59.8853H57.5796V59.8853H57.5796Z" fill="#3F3D56"/>
<path d="M50.4203 38.9499H42.8385C42.6473 38.9499 42.4918 38.7947 42.4918 38.604C42.4918 38.4133 42.6474 38.2582 42.8385 38.2582H50.4203C50.6114 38.2582 50.7669 38.4133 50.7669 38.604C50.7669 38.7947 50.6114 38.9499 50.4203 38.9499V38.9499Z" fill="#7700FF"/>
<path d="M50.4203 46.325H42.8385C42.6473 46.325 42.4918 46.1698 42.4918 45.9791C42.4918 45.7884 42.6474 45.6333 42.8385 45.6333H50.4203C50.6114 45.6333 50.7669 45.7884 50.7669 45.9791C50.7669 46.1698 50.6114 46.325 50.4203 46.325V46.325Z" fill="#7700FF"/>
<path d="M46.6538 56.4934H39.072C38.8809 56.4934 38.7253 56.3382 38.7253 56.1475C38.7253 55.9568 38.8809 55.8017 39.072 55.8017H46.6538C46.845 55.8017 47.0004 55.9568 47.0004 56.1475C47.0004 56.3382 46.845 56.4934 46.6538 56.4934V56.4934Z" fill="#7700FF"/>
<path d="M54.4888 42.6399H38.77C38.5789 42.6399 38.4233 42.4847 38.4233 42.294C38.4233 42.1033 38.5789 41.9482 38.77 41.9482H54.4888C54.6799 41.9482 54.8354 42.1033 54.8354 42.294C54.8354 42.4847 54.6799 42.6399 54.4888 42.6399V42.6399Z" fill="#7700FF"/>
<path d="M58.384 20.1539C58.384 12.8443 52.1919 8.82327 45.1187 6.91875C36.0502 4.477 29.4085 9.418 31.8533 20.1539C32.4074 22.5871 33.7326 25.429 35.373 27.8599H48.3904C52.7387 25.0354 58.384 25.8275 58.384 20.1539H58.384Z" fill="#7700FF"/>
<path d="M44.924 33.9719C45.6645 32.5635 46.6033 31.5474 47.6377 30.774H35.4453C38.5833 35.2462 42.7449 38.1166 44.924 33.9719Z" fill="#7700FF"/>
<path d="M43.517 12.3288C44.2997 12.3288 44.9343 12.9619 44.9343 13.7428V16.5709H42.0998V13.7428C42.0998 12.9619 42.7343 12.3288 43.517 12.3288ZM45.6429 16.5709V13.7428C45.6429 12.5714 44.6911 11.6218 43.517 11.6218C42.3429 11.6218 41.3911 12.5714 41.3911 13.7428V16.5709C40.6084 16.5709 39.9739 17.2039 39.9739 17.9849V21.52C39.9739 22.3009 40.6084 22.934 41.3911 22.934H45.6429C46.4256 22.934 47.0602 22.3009 47.0602 21.52V17.9849C47.0602 17.2039 46.4256 16.5709 45.6429 16.5709H45.6429ZM41.3911 17.2779H45.6429C46.0343 17.2779 46.3515 17.5944 46.3515 17.9849V21.52C46.3515 21.9104 46.0343 22.227 45.6429 22.227H41.3911C40.9998 22.227 40.6825 21.9104 40.6825 21.52V17.9849C40.6825 17.5944 40.9998 17.2779 41.3911 17.2779Z" fill="white"/>
<path d="M130.608 38.5794C137.766 38.5794 143.569 32.7897 143.569 25.6478C143.569 18.5059 137.766 12.7162 130.608 12.7162C123.45 12.7162 117.647 18.5059 117.647 25.6478C117.647 32.7897 123.45 38.5794 130.608 38.5794Z" fill="#7700FF"/>
<path d="M130.608 19.8586C131.523 19.8586 132.266 20.5992 132.266 21.5127V24.8208H128.95V21.5127C128.95 20.5992 129.692 19.8586 130.608 19.8586ZM133.095 24.8208V21.5127C133.095 20.1424 131.981 19.0316 130.608 19.0316C129.235 19.0316 128.121 20.1424 128.121 21.5127V24.8208C127.206 24.8208 126.463 25.5613 126.463 26.4748V30.6099C126.463 31.5234 127.206 32.2639 128.121 32.2639H133.095C134.01 32.2639 134.752 31.5234 134.752 30.6099V26.4748C134.752 25.5613 134.01 24.8208 133.095 24.8208H133.095ZM128.121 25.6478H133.095C133.552 25.6478 133.924 26.018 133.924 26.4748V30.6099C133.924 31.0666 133.552 31.4369 133.095 31.4369H128.121C127.663 31.4369 127.292 31.0666 127.292 30.6099V26.4748C127.292 26.018 127.663 25.6478 128.121 25.6478Z" fill="white"/>
</g>
<defs>
<clipPath id="clip0_327_1210">
<rect width="148" height="105" fill="white" transform="translate(0 0.116211)"/>
</clipPath>
</defs>
</svg>
