<svg width="23" height="22" viewBox="0 0 23 22" fill="none" xmlns="http://www.w3.org/2000/svg">
<rect x="1" y="1" width="21" height="20" rx="2" stroke="#7700FF" stroke-width="2"/>
<path d="M17 6L7 16" stroke="#7700FF" stroke-width="2" stroke-linecap="round" stroke-linejoin="round"/>
<path d="M8 9C9.10457 9 10 8.10457 10 7C10 5.89543 9.10457 5 8 5C6.89543 5 6 5.89543 6 7C6 8.10457 6.89543 9 8 9Z" stroke="#7700FF" stroke-width="2" stroke-linecap="round" stroke-linejoin="round"/>
<path d="M16 17C17.1046 17 18 16.1046 18 15C18 13.8954 17.1046 13 16 13C14.8954 13 14 13.8954 14 15C14 16.1046 14.8954 17 16 17Z" stroke="#7700FF" stroke-width="2" stroke-linecap="round" stroke-linejoin="round"/>
</svg>
