<svg width="411" height="219" viewBox="0 0 411 219" fill="none" xmlns="http://www.w3.org/2000/svg">
<rect width="411" height="219" rx="8" fill="#B2FEEE"/>
<path d="M272.921 40.7311H256.75V178.034C256.75 180.189 256.324 182.322 255.497 184.312C254.669 186.302 253.456 188.111 251.926 189.634C250.396 191.157 248.581 192.366 246.582 193.19C244.584 194.014 242.442 194.439 240.279 194.439H116.645V194.596C116.645 196.75 117.071 198.883 117.899 200.873C118.727 202.864 119.94 204.672 121.469 206.195C122.999 207.719 124.815 208.927 126.813 209.751C128.812 210.576 130.954 211 133.117 211H272.921C275.085 211 277.226 210.576 279.225 209.751C281.223 208.927 283.039 207.719 284.569 206.195C286.098 204.672 287.312 202.864 288.139 200.873C288.967 198.883 289.393 196.75 289.393 194.596V57.1354C289.393 54.9812 288.967 52.848 288.139 50.8577C287.312 48.8675 286.098 47.0591 284.569 45.5358C283.039 44.0125 281.223 42.8042 279.225 41.9798C277.226 41.1554 275.085 40.7311 272.921 40.7311V40.7311Z" fill="#F2F2F2"/>
<path d="M252.911 26.6461H93.8369C90.061 26.6461 87 29.6946 87 33.4551V190.106C87 193.867 90.061 196.915 93.8369 196.915H252.911C256.687 196.915 259.748 193.867 259.748 190.106V33.4551C259.748 29.6946 256.687 26.6461 252.911 26.6461Z" fill="#F2F2F2"/>
<path d="M103.472 30.0197C100.002 30.0197 96.6738 31.3925 94.22 33.8363C91.7662 36.28 90.3877 39.5944 90.3877 43.0504V180.511C90.3877 183.967 91.7662 187.281 94.22 189.725C96.6738 192.169 100.002 193.542 103.472 193.542H192.699C227.858 193.542 256.361 165.156 256.361 130.14V43.0504C256.361 39.5944 254.982 36.28 252.528 33.8363C250.075 31.3925 246.747 30.0197 243.276 30.0197H103.472Z" fill="white"/>
<path d="M263.529 122.27C262.814 122.467 262.065 122.507 261.333 122.388C260.601 122.268 259.904 121.992 259.29 121.578C258.676 121.164 258.16 120.621 257.777 119.989C257.394 119.357 257.153 118.649 257.072 117.915L232.642 110.567L233.021 103.338L261.973 112.276C263.224 112.231 264.448 112.646 265.413 113.44C266.378 114.234 267.016 115.353 267.208 116.585C267.4 117.817 267.131 119.076 266.453 120.124C265.775 121.171 264.734 121.935 263.529 122.27V122.27Z" fill="#FFB6B6"/>
<path d="M181.276 84.9769C178.802 82.921 182.424 72.731 181.448 69.7775C181.389 69.5987 181.334 69.4194 181.281 69.2395C181.171 68.8584 181.195 68.4509 181.351 68.0858L190.533 63.7844C192.926 64.758 195.13 66.1382 197.048 67.8636L211.233 83.9984L225.325 96.6737L231.509 99.419L251.999 108.521L251.787 109.131L251.785 109.132L249.533 115.647L249.533 115.65L254.038 118.778L239.288 116.565L229.532 112.558L220.139 108.7C206.27 100.387 183.451 96.0785 181.276 84.9769Z" fill="#7700FF"/>
<path d="M246.652 159.75C246.381 159.873 246.079 159.909 245.786 159.855C245.494 159.801 245.225 159.659 245.017 159.448C244.808 159.237 244.67 158.967 244.62 158.675C244.571 158.383 244.613 158.082 244.74 157.815C244.72 157.667 244.706 157.561 244.686 157.413C244.662 157.388 244.638 157.364 244.614 157.34C242.189 154.891 237.996 156.588 237.953 160.027C237.915 163.079 237.581 166.255 238.353 169.158C238.694 170.441 239.257 171.656 240.015 172.747C235.212 168.203 231.447 162.684 228.974 156.564C228.355 155.027 227.823 153.457 227.38 151.862C227.018 150.553 226.715 149.232 226.47 147.897C225.149 140.653 225.572 133.2 227.704 126.15C229.324 124.196 230.303 121.796 230.51 119.271C230.587 118.362 230.532 117.447 230.346 116.554C230.125 116.678 228.05 113.391 228.139 113.103C227.615 112.741 226.933 112.729 226.384 112.39C223.653 110.707 221.383 112.097 221.417 115.852C219.248 118.304 220.133 120.581 222.679 122.095C224.299 123.059 225.2 124.877 226.728 125.99C226.682 126.15 226.63 126.308 226.583 126.469C225.734 129.411 225.177 132.429 224.919 135.479C224.148 132.518 222.248 129.338 220.456 127.514C218.416 125.436 215.627 124.113 213.048 122.642C209.95 120.875 206.187 123.688 207.145 127.113C207.154 127.146 207.163 127.179 207.173 127.212C207.484 127.254 207.794 127.306 208.103 127.369C208.491 127.451 208.845 127.647 209.119 127.932C209.393 128.218 209.574 128.579 209.638 128.968C209.703 129.358 209.647 129.758 209.48 130.116C209.312 130.474 209.04 130.772 208.698 130.974L208.663 130.994C209.121 131.871 209.645 132.712 210.231 133.509C211.439 142.846 217.421 144.034 224.248 141.47C224.428 141.487 224.605 141.505 224.783 141.518C224.958 145.66 225.673 149.762 226.909 153.72C227.646 156.052 228.571 158.322 229.675 160.506L229.632 160.43C228.129 158.111 225.869 156.38 223.233 155.528C219.333 154.299 214.831 155.069 210.888 154.403C208.99 154.082 207.521 156.062 208.495 157.716C208.51 157.742 208.526 157.769 208.542 157.795C209.091 157.798 209.639 157.835 210.183 157.906C210.495 157.948 210.805 158 211.113 158.063C211.501 158.144 211.855 158.341 212.129 158.626C212.403 158.912 212.584 159.273 212.649 159.662C212.713 160.052 212.658 160.452 212.49 160.81C212.322 161.167 212.05 161.466 211.709 161.667L211.674 161.688C211.648 161.702 211.627 161.715 211.602 161.73C213.18 163.326 215.022 164.639 217.047 165.612C221.392 172.449 227.573 170.795 233.018 166.126L233.022 166.125C234.92 168.845 237.097 171.361 239.517 173.633L250.21 169.365C250.201 169.231 250.186 169.095 250.173 168.963C249.208 169.42 248.191 169.758 247.143 169.969C247.547 168.682 247.947 167.389 248.35 166.102C248.36 166.077 248.369 166.052 248.377 166.025C248.579 165.369 248.788 164.714 248.99 164.057L248.99 164.057C248.4 162.527 247.614 161.08 246.652 159.75L246.652 159.75Z" fill="#F2F2F2"/>
<path d="M187.879 169.121L187.757 168.969C187.404 166.708 187.879 169.121 187.879 169.121Z" fill="#2F2E41"/>
<path d="M194.143 193.509H159.887C157.226 186.92 155.378 182.208 155.378 182.208C155.378 182.208 154.93 186.824 154.29 193.509H123.32C123.031 175.341 122.625 156.687 122.491 150.762L181.935 152.081L187.847 159.549C187.867 159.673 187.888 159.811 187.913 159.966C188.152 161.483 191.371 177.77 194.143 193.509Z" fill="#00163A"/>
<path d="M193.624 65.7281L193.618 65.7176C193.429 65.3683 193.125 65.0945 192.757 64.9424C188.996 62.0361 184.878 60.7113 180.256 61.6174C179.5 59.3362 178.794 59.3362 178.794 59.3362L168.77 56.0391L167.328 47.2682L142.631 46.4357L140.386 57.3809C140.386 57.3809 126.582 59.8454 126.582 61.6276C126.582 63.4097 128.882 63.4097 126.582 63.4097C124.281 63.4097 123.665 61.373 121.673 63.4097C121.503 63.5809 121.322 63.7424 121.134 63.8935C121.111 63.9139 121.085 63.9317 121.062 63.952C118.812 65.7151 117.043 68.014 115.919 70.637C114.796 73.26 114.353 76.1225 114.633 78.9606L118.879 121.028L123.412 165.916L185.441 168.487L189.595 130.29L193.821 66.7365C193.858 66.3883 193.79 66.0369 193.624 65.7281Z" fill="#7700FF"/>
<path d="M91.798 178.538C92.1522 179.425 92.5095 180.075 92.8701 180.397L213.171 180.651C213.531 180.33 213.889 179.68 214.243 178.793C218.45 168.25 210.513 156.819 199.122 156.797L106.925 156.623C95.5495 156.602 87.5961 168.01 91.798 178.538Z" fill="white"/>
<path d="M213.268 180.906L213.17 180.906L92.7722 180.651L92.6997 180.586C92.3247 180.252 91.9521 179.613 91.5605 178.632C90.5646 176.179 90.1973 173.519 90.4916 170.889C90.786 168.26 91.7328 165.745 93.2467 163.571C94.7582 161.352 96.7922 159.536 99.1711 158.28C101.55 157.025 104.201 156.368 106.894 156.369H106.925L199.123 156.543C201.825 156.548 204.484 157.212 206.869 158.476C209.255 159.741 211.293 161.568 212.805 163.797C214.317 165.978 215.262 168.498 215.554 171.132C215.846 173.765 215.478 176.43 214.48 178.887C214.089 179.867 213.716 180.507 213.341 180.841L213.268 180.906ZM100.908 180.118L202.913 179.811C210.113 179.789 215.409 172.867 213.276 166.018C213.074 165.333 212.773 164.681 212.382 164.083C210.916 161.922 208.941 160.152 206.629 158.926C204.318 157.7 201.74 157.057 199.122 157.052L106.924 156.878H106.894C105.723 156.917 104.569 157.162 103.484 157.604C97.5288 159.848 93.5465 165.489 93.2154 171.822C93.2112 171.903 93.207 171.984 93.2028 172.064C93.1508 173.069 93.298 174.074 93.636 175.022C93.9739 175.97 94.4961 176.842 95.1726 177.589C95.8491 178.336 96.6666 178.943 97.5787 179.375C98.4907 179.807 99.4793 180.057 100.488 180.108C100.628 180.115 100.768 180.119 100.908 180.118L100.908 180.118Z" fill="#E6E6E6"/>
<path d="M236.567 88.5701C235.249 83.0591 235.469 77.6311 237.725 72.313C237.749 71.984 237.903 71.6778 238.153 71.4617C238.403 71.2455 238.729 71.137 239.059 71.16L251.388 72.0312C251.718 72.0549 252.025 72.2082 252.242 72.4573C252.459 72.7065 252.568 73.0313 252.545 73.3603L251.387 89.6174C251.363 89.9464 251.209 90.2526 250.959 90.4687C250.709 90.6849 250.383 90.7934 250.052 90.7704L237.724 89.8992C237.394 89.8755 237.087 89.7222 236.87 89.4731C236.652 89.2239 236.544 88.8991 236.567 88.5701V88.5701Z" fill="#F2F2F2"/>
<path d="M237.862 83.7266C236.808 81.0109 237.482 77.2759 238.607 73.2751C238.629 72.9669 238.773 72.6802 239.007 72.4777C239.242 72.2753 239.547 72.1737 239.857 72.1952L250.452 72.9439C250.761 72.9661 251.049 73.1097 251.252 73.343C251.455 73.5764 251.558 73.8805 251.536 74.1887L250.505 88.6553C250.483 88.9634 250.339 89.2502 250.104 89.4526C249.87 89.655 249.565 89.7566 249.255 89.7351L242.692 89.2713C241.314 89.1724 240.031 88.533 239.126 87.4935C238.22 86.4541 237.766 85.0993 237.862 83.7266Z" fill="white"/>
<path d="M245.198 84.4354C244.874 84.38 244.55 84.3246 244.227 84.2693C244.376 83.9188 244.462 83.5449 244.481 83.1648C244.634 81.1301 244.65 79.0761 244.731 77.0372C244.729 76.9627 244.705 76.8903 244.663 76.8289C244.62 76.7675 244.561 76.7196 244.492 76.691C244.423 76.6625 244.347 76.6545 244.273 76.668C244.199 76.6815 244.131 76.716 244.077 76.7672C243.264 77.4376 242.451 78.1081 241.638 78.7785C241.258 79.0923 241.803 79.63 242.181 79.3186C242.764 78.8374 243.347 78.3562 243.931 77.8749C243.877 79.2108 243.824 80.5468 243.77 81.8827C243.744 82.5238 243.823 83.3024 243.559 83.9052C243.523 83.9865 243.476 84.0625 243.419 84.1311C243.061 84.0698 242.703 84.0085 242.344 83.9472C242.087 83.9031 241.759 84.1173 241.873 84.4169C242.119 85.0685 242.846 85.2743 243.47 85.0232C243.525 84.9986 243.578 84.9703 243.629 84.9383L244.994 85.1719C245.476 85.2545 245.684 84.5186 245.198 84.4354Z" fill="#6C63FF"/>
<path d="M308.147 143.309C306.829 137.798 307.049 132.37 309.305 127.052C309.329 126.723 309.483 126.416 309.733 126.2C309.983 125.984 310.309 125.876 310.64 125.899L322.968 126.77C323.298 126.794 323.605 126.947 323.822 127.196C324.04 127.445 324.148 127.77 324.125 128.099L322.967 144.356C322.943 144.685 322.789 144.991 322.539 145.207C322.289 145.424 321.963 145.532 321.632 145.509L309.304 144.638C308.974 144.614 308.667 144.461 308.45 144.212C308.233 143.963 308.124 143.638 308.147 143.309V143.309Z" fill="#F2F2F2"/>
<path d="M309.442 138.465C308.388 135.75 309.062 132.015 310.187 128.014C310.209 127.706 310.353 127.419 310.588 127.216C310.822 127.014 311.127 126.912 311.437 126.934L322.032 127.683C322.341 127.705 322.629 127.848 322.832 128.082C323.036 128.315 323.138 128.619 323.116 128.927L322.085 143.394C322.063 143.702 321.919 143.989 321.684 144.191C321.45 144.394 321.145 144.495 320.835 144.474L314.272 144.01C312.894 143.911 311.611 143.272 310.706 142.232C309.8 141.193 309.346 139.838 309.442 138.465V138.465Z" fill="white"/>
<path d="M316.359 135.707C316.5 135.641 316.633 135.561 316.756 135.467C317.085 135.197 317.328 134.838 317.455 134.434C317.583 134.029 317.59 133.596 317.476 133.188C316.979 131.369 314.794 131.358 313.286 131.577C312.799 131.647 313.006 132.383 313.49 132.313C314.506 132.166 316.102 132.046 316.648 133.152C316.773 133.412 316.817 133.703 316.776 133.987C316.734 134.272 316.608 134.538 316.415 134.752C316.183 134.984 315.878 135.128 315.552 135.161C315.235 135.024 314.892 134.96 314.547 134.974C314.192 134.991 313.994 135.506 314.354 135.686C314.672 135.844 315.023 135.926 315.379 135.927C315.674 136.068 315.92 136.294 316.087 136.575C316.254 136.855 316.334 137.179 316.316 137.505C316.282 137.727 316.205 137.94 316.088 138.133C315.972 138.325 315.818 138.493 315.636 138.626C315.455 138.759 315.248 138.856 315.029 138.91C314.81 138.963 314.583 138.974 314.359 138.94L314.35 138.939C313.868 138.842 313.662 139.578 314.146 139.675C314.796 139.797 315.467 139.657 316.013 139.286C316.559 138.914 316.935 138.342 317.057 137.695C317.064 137.66 317.069 137.625 317.075 137.59C317.105 137.243 317.056 136.893 316.933 136.567C316.809 136.241 316.613 135.947 316.359 135.707V135.707Z" fill="#6C63FF"/>
<path d="M295.836 55.8659C292.854 50.5281 293.352 45.2707 298.457 40.1197C298.511 39.801 298.859 39.5045 299.425 39.2951C299.991 39.0858 300.729 38.9807 301.477 39.0029L329.373 39.8467C330.121 39.8697 330.817 40.0182 331.308 40.2595C331.799 40.5008 332.045 40.8154 331.993 41.1341L329.372 56.8803C329.318 57.199 328.97 57.4955 328.404 57.7049C327.838 57.9142 327.1 58.0193 326.352 57.9971L298.456 57.1533C297.708 57.1303 297.012 56.9818 296.521 56.7405C296.03 56.4992 295.784 56.1846 295.836 55.8659V55.8659Z" fill="#F2F2F2"/>
<path d="M296.372 51.1755C293.625 48.5443 295.381 44.9254 298.312 41.049C298.37 40.7505 298.745 40.4726 299.356 40.2765C299.966 40.0803 300.762 39.9819 301.568 40.0027L329.168 40.7282C329.974 40.7497 330.724 40.8888 331.254 41.1149C331.783 41.341 332.049 41.6356 331.993 41.9343L329.308 55.951C329.249 56.2496 328.874 56.5274 328.264 56.7235C327.653 56.9197 326.858 57.0181 326.051 56.9972L308.954 56.5479C305.364 56.452 302.023 55.8325 299.664 54.8254C297.305 53.8182 296.121 52.5056 296.372 51.1755V51.1755Z" fill="white"/>
<path d="M115.069 118.529L121.143 121.253C118.287 123.56 113.939 126.663 109.68 128.099L102.913 123.504C100.392 113.824 101.936 103.849 104.966 95.4137C106.644 90.7267 108.87 86.2525 111.597 82.083C111.318 79.2449 111.76 76.3825 112.884 73.7596C114.008 71.1366 115.776 68.8376 118.027 67.0744C118.052 67.0541 118.075 67.0362 118.098 67.0159C120.34 68.9531 122.171 71.3161 123.484 73.9666C124.797 76.6171 125.567 79.5019 125.747 82.4522L125.882 84.6824L126.153 89.0768L126.841 100.299L118.686 112.928L115.069 118.529Z" fill="#7700FF"/>
<path d="M132.543 166.44C132.614 166.528 132.705 166.6 132.807 166.649C132.91 166.698 133.023 166.723 133.136 166.722H174.637C174.751 166.722 174.863 166.697 174.965 166.648C175.068 166.6 175.158 166.529 175.23 166.441C175.301 166.353 175.352 166.251 175.379 166.141C175.405 166.031 175.407 165.916 175.384 165.806L174.74 162.758C174.713 162.634 174.656 162.518 174.572 162.422C174.489 162.325 174.383 162.251 174.264 162.206C174.178 162.172 174.086 162.155 173.993 162.155H133.778C133.685 162.155 133.593 162.172 133.507 162.206C133.388 162.251 133.282 162.325 133.199 162.422C133.116 162.518 133.058 162.634 133.032 162.758L132.387 165.806C132.364 165.916 132.367 166.031 132.393 166.14C132.42 166.25 132.472 166.352 132.543 166.44V166.44Z" fill="#2F2E41"/>
<path d="M116.655 98.2177V145.894C116.656 146.501 116.898 147.084 117.33 147.513C117.761 147.943 118.346 148.185 118.956 148.185H189.897C190.507 148.185 191.092 147.943 191.523 147.513C191.955 147.084 192.197 146.501 192.198 145.894V98.2177C192.196 97.6106 191.953 97.0289 191.522 96.5999C191.091 96.1709 190.507 95.9296 189.897 95.9288H118.956C118.347 95.9296 117.762 96.1709 117.331 96.5999C116.9 97.0289 116.657 97.6106 116.655 98.2177V98.2177Z" fill="#3F3D56"/>
<path d="M145.55 138.831V164.943H163.918V138.831C163.919 138.643 163.858 138.46 163.747 138.309C163.635 138.158 163.477 138.046 163.297 137.991C163.212 137.963 163.123 137.949 163.034 137.95H146.437C146.203 137.95 145.977 138.042 145.811 138.207C145.644 138.372 145.551 138.596 145.55 138.83V138.831V138.831ZM152.719 147.803C152.723 147.288 152.932 146.796 153.299 146.434C153.666 146.072 154.162 145.869 154.679 145.869C155.196 145.869 155.692 146.072 156.059 146.434C156.426 146.796 156.635 147.288 156.64 147.803V150.833C156.637 151.349 156.43 151.843 156.062 152.207C155.695 152.571 155.198 152.776 154.679 152.776C154.161 152.776 153.664 152.571 153.296 152.207C152.929 151.843 152.721 151.349 152.719 150.833V147.803Z" fill="#2F2E41"/>
<path d="M156.271 45.4582C165.099 45.4582 172.255 38.3309 172.255 29.539C172.255 20.7471 165.099 13.6199 156.271 13.6199C147.443 13.6199 140.286 20.7471 140.286 29.539C140.286 38.3309 147.443 45.4582 156.271 45.4582Z" fill="#FFB6B6"/>
<path d="M175.409 26.7541C173.686 27.2869 172.025 27.601 170.904 26.1932C169.783 24.7854 170.076 23.1757 168.409 22.4971C167.063 21.9474 165.509 22.183 164.152 22.6934C163.909 22.7831 163.673 22.8841 163.442 22.985C163.312 22.8729 163.183 22.7663 163.042 22.6653C161.983 21.9149 160.674 21.5978 159.387 21.7792C160.328 22.2318 161.102 22.9676 161.6 23.8824C161.139 24.1124 160.642 24.2843 160.198 24.5387C154.094 28.034 147.305 29.4416 147.859 23.6076C149.706 28.4535 148.27 30.181 145.561 34.6063L145.454 34.8643C145.725 33.7033 143.824 33.6483 142.182 34.0454C140.97 34.3387 141.754 37.154 143.309 39.0933C139.834 33.8827 134.629 25.9274 139.13 21.9362C139.794 21.3476 140.21 20.517 140.329 18.3915C140.4 17.1312 142.554 16.8155 143.691 17.3763C143.856 15.4814 144.521 13.6635 145.619 12.1072C146.717 10.5508 148.209 9.31138 149.943 8.51457C153.423 6.97217 156.963 9.34484 160.744 9.80456C162.843 10.0596 164.434 10.9012 164.518 13.568C164.573 15.3439 167.26 15.9798 169.017 16.2938C170.132 16.4902 171.388 16.3724 172.278 17.0735C173.309 17.8867 173.32 19.3169 173.314 20.6911C172.306 20.6624 171.312 20.9339 170.459 21.4707C171.503 21.4968 172.512 21.8501 173.343 22.4803C173.359 22.4901 173.374 22.5014 173.388 22.5139C173.692 24.8247 173.568 25.3127 175.409 26.7541Z" fill="#2F2E41"/>
<path d="M186.937 104.376C193.183 102.443 199.87 104.533 206.15 102.749C207.594 102.355 208.96 101.717 210.186 100.861C211.232 100.071 212.214 99.2004 213.124 98.2572C215.013 96.3963 217.065 94.4423 219.903 94.4639C223.641 94.4923 226.51 97.2573 229.002 99.6988C229.354 100.044 229.896 99.5042 229.544 99.1588C227.255 96.9153 224.781 94.5484 221.523 93.8787C220.061 93.5559 218.535 93.6821 217.147 94.2407C215.943 94.7857 214.843 95.5349 213.896 96.455C212.892 97.3715 211.967 98.3693 210.95 99.2713C209.888 100.233 208.665 101.002 207.336 101.543C204.457 102.685 201.299 102.822 198.237 102.789C194.393 102.747 190.457 102.487 186.733 103.639C186.263 103.785 186.464 104.522 186.937 104.376H186.937Z" fill="#3F3D56"/>
<path d="M230.372 94.5514L232.292 97.9222L233.221 99.5532C233.386 99.8431 233.555 100.131 233.716 100.423C233.815 100.603 234.03 100.926 233.825 101.097C233.644 101.185 233.44 101.216 233.241 101.187C232.902 101.188 232.564 101.18 232.225 101.177L230.321 101.158L226.386 101.118C226.287 101.122 226.192 101.163 226.123 101.235C226.054 101.306 226.016 101.401 226.016 101.5C226.016 101.599 226.054 101.694 226.123 101.765C226.192 101.837 226.287 101.878 226.386 101.882C228.671 101.905 230.956 101.953 233.241 101.951C233.64 101.989 234.038 101.88 234.362 101.646C234.52 101.489 234.625 101.286 234.662 101.066C234.698 100.846 234.665 100.621 234.565 100.421C234.34 99.9317 234.081 99.4584 233.79 99.0046L232.954 97.5367L231.034 94.1659C230.981 94.0821 230.897 94.0222 230.8 93.9987C230.704 93.9752 230.602 93.99 230.516 94.04C230.43 94.09 230.367 94.1713 230.34 94.2667C230.313 94.3621 230.324 94.4642 230.372 94.5514V94.5514Z" fill="#3F3D56"/>
<path d="M255.749 102.811H238.102C238.005 102.811 237.909 102.793 237.82 102.756C237.73 102.72 237.649 102.666 237.581 102.598C237.512 102.53 237.457 102.45 237.42 102.361C237.383 102.272 237.364 102.177 237.363 102.081C237.363 101.985 237.382 101.889 237.418 101.8C237.455 101.711 237.509 101.63 237.577 101.562C237.646 101.494 237.727 101.44 237.816 101.403C237.905 101.366 238.001 101.347 238.097 101.346C238.099 101.346 238.1 101.346 238.102 101.346H255.749C255.845 101.346 255.941 101.364 256.031 101.401C256.12 101.437 256.201 101.491 256.27 101.559C256.339 101.627 256.393 101.707 256.43 101.796C256.468 101.885 256.487 101.98 256.487 102.076C256.488 102.173 256.469 102.268 256.432 102.357C256.395 102.446 256.341 102.527 256.273 102.595C256.205 102.663 256.124 102.718 256.035 102.755C255.946 102.792 255.85 102.811 255.753 102.811C255.752 102.811 255.75 102.811 255.749 102.811Z" fill="#E6E6E6"/>
<path d="M255.749 114.606H238.102C238.005 114.606 237.91 114.588 237.82 114.551C237.731 114.515 237.65 114.461 237.581 114.393C237.513 114.325 237.458 114.245 237.421 114.156C237.384 114.067 237.365 113.972 237.364 113.876C237.364 113.78 237.383 113.684 237.419 113.595C237.456 113.507 237.51 113.426 237.578 113.357C237.646 113.289 237.727 113.235 237.816 113.198C237.905 113.161 238.001 113.142 238.097 113.141C238.099 113.141 238.1 113.141 238.102 113.141H255.749C255.846 113.141 255.941 113.16 256.031 113.196C256.12 113.233 256.201 113.286 256.27 113.354C256.338 113.422 256.392 113.503 256.43 113.591C256.467 113.68 256.486 113.775 256.487 113.871C256.487 113.968 256.468 114.063 256.431 114.152C256.395 114.241 256.341 114.322 256.273 114.39C256.205 114.458 256.124 114.512 256.035 114.549C255.946 114.586 255.85 114.606 255.753 114.606C255.752 114.606 255.75 114.606 255.749 114.606Z" fill="#E6E6E6"/>
<path d="M273.073 108.709H238.102C238.005 108.709 237.909 108.69 237.82 108.654C237.73 108.617 237.649 108.564 237.581 108.496C237.512 108.428 237.457 108.347 237.42 108.259C237.383 108.17 237.364 108.075 237.363 107.978C237.363 107.882 237.382 107.787 237.418 107.698C237.455 107.609 237.509 107.528 237.577 107.46C237.646 107.391 237.727 107.337 237.816 107.3C237.905 107.263 238.001 107.244 238.097 107.244C238.099 107.244 238.1 107.244 238.102 107.244H273.073C273.169 107.244 273.265 107.262 273.354 107.299C273.444 107.335 273.525 107.389 273.594 107.457C273.662 107.524 273.717 107.605 273.754 107.694C273.791 107.783 273.811 107.878 273.811 107.974C273.811 108.07 273.792 108.166 273.756 108.255C273.719 108.344 273.665 108.425 273.597 108.493C273.529 108.561 273.448 108.615 273.359 108.652C273.269 108.689 273.174 108.708 273.077 108.709C273.076 108.709 273.074 108.709 273.073 108.709Z" fill="#E6E6E6"/>
<path d="M249.659 95.8949C253.541 90.6529 260.172 88.3927 264.171 83.2503C265.1 82.0812 265.821 80.7611 266.3 79.3482C266.673 78.0945 266.946 76.8136 267.118 75.5173C267.533 72.9035 268.024 70.1189 270.324 68.4619C273.352 66.2799 277.309 66.8147 280.768 67.3121C280.867 67.3238 280.966 67.2967 281.046 67.2366C281.125 67.1766 281.177 67.0883 281.192 66.9903C281.207 66.8923 281.184 66.7924 281.126 66.7115C281.068 66.6307 280.982 66.5753 280.884 66.5571C277.705 66.1 274.305 65.6521 271.281 67.0348C269.911 67.637 268.757 68.6387 267.971 69.9077C267.325 71.0573 266.884 72.31 266.668 73.6099C266.405 74.9402 266.252 76.2902 265.969 77.6169C265.686 79.0183 265.158 80.3594 264.409 81.5789C262.768 84.1972 260.306 86.1712 257.819 87.9508C254.697 90.1848 251.371 92.2964 249.057 95.4218C248.765 95.8161 249.365 96.2921 249.659 95.8949L249.659 95.8949Z" fill="#3F3D56"/>
<path d="M278.811 62.3568L282.362 63.94L284.081 64.706C284.386 64.8422 284.694 64.9739 284.998 65.1146C285.184 65.201 285.55 65.3346 285.485 65.5932C285.441 65.7693 285.204 65.9111 285.069 66.0105C284.797 66.2108 284.52 66.4045 284.245 66.6014L282.699 67.7092L279.505 69.9986C279.427 70.06 279.376 70.1492 279.363 70.2474C279.35 70.3455 279.375 70.445 279.434 70.5248C279.493 70.6046 279.581 70.6585 279.679 70.6751C279.777 70.6918 279.877 70.6699 279.959 70.614C281.814 69.2849 283.684 67.9752 285.523 66.6259C285.867 66.4214 286.124 66.0986 286.245 65.7185C286.279 65.4984 286.243 65.2732 286.142 65.0746C286.041 64.8761 285.879 64.7143 285.681 64.6121C285.208 64.3505 284.718 64.122 284.213 63.9282L282.667 63.2387L279.115 61.6556C279.022 61.6194 278.919 61.6204 278.827 61.6585C278.735 61.6966 278.662 61.7688 278.622 61.8597C278.583 61.9507 278.58 62.0534 278.615 62.1462C278.651 62.2389 278.721 62.3144 278.81 62.3568L278.811 62.3568Z" fill="#3F3D56"/>
<path d="M310.712 66.4033H293.065C292.968 66.4037 292.873 66.3852 292.783 66.3487C292.694 66.3122 292.612 66.2585 292.544 66.1907C292.475 66.1229 292.421 66.0423 292.384 65.9535C292.346 65.8647 292.327 65.7695 292.327 65.6732C292.326 65.577 292.345 65.4817 292.382 65.3926C292.419 65.3036 292.473 65.2227 292.541 65.1545C292.609 65.0863 292.69 65.0321 292.779 64.9951C292.868 64.9581 292.964 64.9389 293.061 64.9387C293.062 64.9387 293.064 64.9387 293.065 64.9387H310.712C310.809 64.9383 310.905 64.9569 310.994 64.9934C311.083 65.0299 311.165 65.0835 311.233 65.1514C311.302 65.2192 311.356 65.2998 311.394 65.3885C311.431 65.4773 311.45 65.5726 311.451 65.6688C311.451 65.765 311.432 65.8604 311.395 65.9494C311.359 66.0384 311.305 66.1194 311.237 66.1876C311.168 66.2558 311.087 66.31 310.998 66.347C310.909 66.384 310.813 66.4031 310.717 66.4033C310.715 66.4033 310.714 66.4033 310.712 66.4033Z" fill="#6C63FF"/>
<path d="M263.208 119.016C267.091 124.258 273.721 126.518 277.72 131.66C278.65 132.829 279.37 134.149 279.849 135.562C280.222 136.816 280.496 138.097 280.667 139.393C281.083 142.007 281.573 144.791 283.873 146.448C286.901 148.631 290.858 148.096 294.317 147.598C294.416 147.587 294.516 147.614 294.595 147.674C294.674 147.734 294.727 147.822 294.742 147.92C294.757 148.018 294.733 148.118 294.675 148.199C294.618 148.28 294.531 148.335 294.433 148.353C291.254 148.81 287.854 149.258 284.83 147.876C283.46 147.273 282.306 146.272 281.52 145.003C280.874 143.853 280.433 142.6 280.217 141.301C279.954 139.97 279.802 138.62 279.519 137.294C279.235 135.892 278.707 134.551 277.958 133.331C276.318 130.713 273.855 128.739 271.368 126.96C268.247 124.726 264.921 122.614 262.606 119.489C262.314 119.094 262.914 118.618 263.208 119.016L263.208 119.016Z" fill="#3F3D56"/>
<path d="M292.359 152.554L295.911 150.97L297.63 150.204C297.935 150.068 298.243 149.937 298.546 149.796C298.733 149.709 299.099 149.576 299.034 149.317C298.99 149.141 298.753 148.999 298.618 148.9C298.346 148.7 298.068 148.506 297.794 148.309L296.248 147.201L293.054 144.912C292.976 144.85 292.925 144.761 292.912 144.663C292.898 144.565 292.924 144.465 292.983 144.386C293.042 144.306 293.129 144.252 293.227 144.235C293.325 144.219 293.426 144.241 293.508 144.296C295.362 145.625 297.233 146.935 299.072 148.285C299.416 148.489 299.673 148.812 299.794 149.192C299.828 149.412 299.792 149.637 299.691 149.836C299.589 150.034 299.428 150.196 299.229 150.298C298.757 150.56 298.266 150.788 297.762 150.982L296.215 151.672L292.663 153.255C292.571 153.291 292.468 153.29 292.376 153.252C292.284 153.214 292.211 153.142 292.171 153.051C292.132 152.96 292.129 152.857 292.164 152.764C292.199 152.672 292.269 152.596 292.359 152.554H292.359Z" fill="#3F3D56"/>
<path d="M324.262 150.675H306.614C306.419 150.676 306.232 150.6 306.094 150.463C305.956 150.326 305.877 150.14 305.876 149.946C305.876 149.752 305.952 149.566 306.089 149.428C306.226 149.29 306.413 149.212 306.608 149.211C306.61 149.211 306.612 149.211 306.614 149.211H324.262C324.456 149.21 324.644 149.287 324.782 149.423C324.92 149.56 324.998 149.746 324.999 149.94C325 150.134 324.924 150.32 324.786 150.458C324.649 150.596 324.463 150.674 324.268 150.675C324.266 150.675 324.264 150.675 324.262 150.675Z" fill="#6C63FF"/>
<path d="M123.088 122.21C122.754 122.87 122.28 123.449 121.699 123.908C121.118 124.367 120.444 124.695 119.723 124.869C119.003 125.043 118.253 125.058 117.525 124.915C116.797 124.772 116.11 124.473 115.51 124.04L97.1302 132.75L95.8984 127.62L114.616 116.635C115.424 115.683 116.555 115.06 117.794 114.883C119.033 114.706 120.294 114.988 121.339 115.675C122.383 116.362 123.138 117.407 123.46 118.612C123.783 119.816 123.65 121.097 123.088 122.21L123.088 122.21Z" fill="#FFB6B6"/>
<path d="M116.006 95.7518L103.073 122.07L108.539 119.603L112.343 117.884L114.25 125.099C114.25 125.099 112.987 126.321 110.995 127.928C108.14 130.235 103.791 133.338 99.5324 134.774C96.1988 135.899 92.924 136.004 90.4647 133.906C85.7967 129.924 90.3599 114.111 94.7697 102.071C97.7224 94.0078 100.604 87.6403 100.604 87.6403C100.604 79.1367 117.174 66.9092 120.249 65.2365C122.006 64.2843 122.491 65.6711 122.491 65.6711L112.854 79.7223L115.735 91.3574L116.551 94.6443L116.006 95.7518Z" fill="#7700FF"/>
<path d="M308.436 54.6498H310.57L304.44 41L298 54.6498H300.134L301.55 51.537H307.078L308.436 54.6498ZM302.365 49.6809L304.363 45.3115L306.283 49.6809H302.365ZM312.199 41.754V54.6498H314.178V49.4103H315.07C316.212 49.4723 317.337 49.1145 318.232 48.4049C318.639 48.0566 318.963 47.6228 319.181 47.1347C319.399 46.6466 319.505 46.1163 319.493 45.5821C319.504 44.9684 319.362 44.3614 319.082 43.8151C318.801 43.2688 318.389 42.7999 317.883 42.45C317.028 41.9458 316.043 41.7037 315.051 41.754H312.199ZM314.178 43.5714H315.051C317.301 43.5714 317.592 44.8475 317.592 45.5628C317.592 46.7615 316.777 47.5929 315.07 47.5929H314.178V43.5714ZM321.51 41.754V54.6498H323.489V41.754H321.51Z" fill="#7700FF"/>
</svg>
