<svg width="145" height="112" viewBox="0 0 145 112" fill="none" xmlns="http://www.w3.org/2000/svg">
<path d="M5.4043 29.5343C5.46734 29.587 5.52941 29.6406 5.59246 29.6938C5.64774 29.6822 5.7006 29.6614 5.75685 29.6546L5.4043 29.5343Z" fill="#E6E6E6"/>
<path d="M4.29038 35.6177L6.20496 34.0739C6.54412 33.8348 6.83322 33.532 7.05605 33.1826C7.20828 32.8517 7.27396 32.4878 7.24699 32.1248C7.22003 31.7618 7.1013 31.4115 6.90184 31.1066C6.54848 30.5661 6.10575 30.0892 5.59247 29.6962C5.02916 29.8291 4.53428 30.1633 4.20141 30.6353C3.86854 31.1074 3.72074 31.6846 3.78601 32.2579C3.90143 32.9878 4.36119 33.7679 3.98584 34.405C3.84035 34.6529 3.58815 34.8216 3.41988 35.0555C3.2516 35.2895 3.19681 35.6612 3.42813 35.8328C3.68564 36.0222 4.04112 35.8158 4.29038 35.6177Z" fill="#E6E6E6"/>
<path d="M5.68681 38.7648C5.92412 38.7775 6.16139 38.7392 6.38254 38.6525C6.60368 38.5657 6.80354 38.4326 6.96854 38.2621C7.82177 37.5654 8.56826 36.7481 9.18429 35.8362L4.87598 37.1964L5.3236 37.7184C4.92643 37.9765 5.22029 38.6759 5.68681 38.7648Z" fill="#E6E6E6"/>
<path d="M9.7117 41.7112C9.79935 41.9344 9.95793 42.1228 10.1632 42.2478C10.3685 42.3727 10.6092 42.4271 10.8484 42.4028C11.0867 42.3711 11.3151 42.2878 11.5175 42.1586C11.7199 42.0294 11.8915 41.8575 12.02 41.6551C12.2387 41.3343 12.3673 40.9611 12.3926 40.5742C12.4179 40.1872 12.3389 39.8006 12.1639 39.4542C11.9888 39.1079 11.7241 38.8146 11.397 38.6045C11.07 38.3944 10.6925 38.2754 10.3038 38.2596L10.7005 38.8633C10.8009 39.8942 9.39551 40.7251 9.7117 41.7112Z" fill="#E6E6E6"/>
<path d="M37.6021 52.9984C37.9905 53.2874 38.4624 53.4429 38.947 53.4418C39.4316 53.4407 39.9027 53.2829 40.2897 52.9922C40.5408 52.7787 40.7449 52.5158 40.8894 52.2201C41.0338 51.9243 41.1154 51.602 41.129 51.2734C41.1427 50.9447 41.0881 50.6168 40.9687 50.3101C40.8493 50.0035 40.6677 49.7247 40.4352 49.4913L39.702 49.8992C39.2951 49.6387 38.8028 49.5456 38.3284 49.6395C37.8541 49.7334 37.4349 50.0071 37.1589 50.4029C36.9115 50.8177 36.8205 51.3068 36.9022 51.7824C36.9839 52.2581 37.2329 52.6892 37.6045 52.9984H37.6021Z" fill="#E6E6E6"/>
<path d="M46.131 53.961C46.4882 53.8577 46.8128 53.6647 47.0738 53.4005C47.3347 53.1362 47.5232 52.8097 47.6212 52.452L46.1955 52.2654C45.7989 51.9668 45.3371 51.7658 44.8478 51.6787C44.6024 51.6421 44.3519 51.6907 44.1382 51.8162C43.9245 51.9418 43.7605 52.1367 43.6737 52.3684C43.6434 52.5655 43.6642 52.7671 43.7341 52.9539C43.8041 53.1407 43.9209 53.3065 44.0733 53.4356C44.3425 53.6914 44.673 53.8741 45.0333 53.9661C45.3936 54.058 45.7716 54.0563 46.131 53.961V53.961Z" fill="#E6E6E6"/>
<path d="M40.2431 56.8021C40.2681 57.0333 40.3587 57.2527 40.5042 57.4345C40.6496 57.6163 40.844 57.753 41.0646 57.8288C41.3056 57.9427 41.5755 57.9819 41.8391 57.9412C42.1027 57.9006 42.3481 57.7819 42.5432 57.6006C42.6293 57.5038 42.691 57.3878 42.7231 57.2624C42.7553 57.137 42.7569 57.0058 42.7279 56.8797C42.6989 56.7535 42.6402 56.6361 42.5565 56.5371C42.4729 56.4381 42.3667 56.3605 42.2469 56.3106L41.1776 56.1172C40.7639 55.9036 40.2363 56.3386 40.2431 56.8021Z" fill="#E6E6E6"/>
<path d="M41.9521 102.28L41.8401 102.271C41.182 102.391 40.5503 102.625 39.974 102.964C39.7849 103.051 39.6339 103.204 39.5487 103.393C39.5237 103.494 39.5241 103.599 39.55 103.7C39.5759 103.8 39.6265 103.893 39.6971 103.969C39.8399 104.119 40.0071 104.245 40.1918 104.34C40.4667 104.523 40.7707 104.659 41.0908 104.741C41.2515 104.781 41.4196 104.78 41.5798 104.738C41.74 104.697 41.8875 104.617 42.0089 104.505C42.1228 104.349 42.2011 104.17 42.2383 103.981C42.2755 103.791 42.2707 103.596 42.2242 103.409C42.1718 103.025 42.0807 102.646 41.9521 102.28Z" fill="#E6E6E6"/>
<path d="M30.6101 111.558C30.7859 111.277 30.9108 110.968 30.9791 110.644L31.1852 109.889L30.4515 109.444C30.1011 109.626 29.778 109.856 29.4913 110.127C29.3487 110.263 29.2359 110.428 29.1601 110.61C29.0843 110.792 29.0472 110.987 29.051 111.184C29.061 111.381 29.1376 111.569 29.2684 111.717C29.3992 111.865 29.5764 111.965 29.7711 111.999C29.9372 112.004 30.1018 111.966 30.2489 111.889C30.3959 111.812 30.5204 111.698 30.6101 111.559V111.558Z" fill="#E6E6E6"/>
<path d="M133.846 109.72H11.1538C8.19669 109.717 5.3616 108.544 3.27057 106.46C1.17954 104.376 0.00333722 101.55 0 98.603V11.117C0.00333722 8.16962 1.17954 5.34389 3.27057 3.25977C5.3616 1.17565 8.19669 0.0033262 11.1538 0H133.846C136.803 0.0033262 139.638 1.17565 141.729 3.25977C143.82 5.34389 144.997 8.16962 145 11.117V98.603C144.997 101.55 143.82 104.376 141.729 106.46C139.638 108.544 136.803 109.717 133.846 109.72Z" fill="#00163A"/>
<path d="M133.846 109.72H11.1538C8.19669 109.717 5.3616 108.544 3.27057 106.46C1.17954 104.376 0.00333722 101.55 0 98.603V11.117C0.00333722 8.16962 1.17954 5.34389 3.27057 3.25977C5.3616 1.17565 8.19669 0.0033262 11.1538 0H133.846C136.803 0.0033262 139.638 1.17565 141.729 3.25977C143.82 5.34389 144.997 8.16962 145 11.117V98.603C144.997 101.55 143.82 104.376 141.729 106.46C139.638 108.544 136.803 109.717 133.846 109.72ZM11.1538 0.966696C8.45384 0.969767 5.86528 2.04016 3.95608 3.94305C2.04689 5.84593 0.97298 8.42592 0.9699 11.117V76.05C0.976204 81.6535 -0.132902 92.6574 16.5954 98.603C33.3238 104.549 133.846 108.753 133.846 108.753C136.546 108.75 139.135 107.68 141.044 105.777C142.953 103.874 144.027 101.294 144.03 98.603V11.117C144.027 8.42592 142.953 5.84593 141.044 3.94305C139.135 2.04016 136.546 0.969767 133.846 0.966696H11.1538Z" fill="#00163A"/>
<path d="M44.5349 13.3204H25.1369C24.6224 13.3204 24.129 13.1167 23.7652 12.7541C23.4015 12.3915 23.1971 11.8998 23.1971 11.387C23.1971 10.8742 23.4015 10.3825 23.7652 10.0199C24.129 9.65731 24.6224 9.45361 25.1369 9.45361H44.5349C45.0493 9.45361 45.5427 9.65731 45.9065 10.0199C46.2703 10.3825 46.4747 10.8742 46.4747 11.387C46.4747 11.8998 46.2703 12.3915 45.9065 12.7541C45.5427 13.1167 45.0493 13.3204 44.5349 13.3204Z" fill="#EDEBFF"/>
<path d="M86.7255 56.8217H25.1369C24.6224 56.8217 24.129 56.618 23.7652 56.2555C23.4015 55.8929 23.1971 55.4011 23.1971 54.8883C23.1971 54.3756 23.4015 53.8838 23.7652 53.5212C24.129 53.1586 24.6224 52.955 25.1369 52.955H86.7255C87.24 52.955 87.7334 53.1586 88.0972 53.5212C88.4609 53.8838 88.6653 54.3756 88.6653 54.8883C88.6653 55.4011 88.4609 55.8929 88.0972 56.2555C87.7334 56.618 87.24 56.8217 86.7255 56.8217Z" fill="#EDEBFF"/>
<path d="M36.0459 44.6164C43.2289 44.6164 49.0518 38.8127 49.0518 31.6535C49.0518 24.4942 43.2289 18.6906 36.0459 18.6906C28.863 18.6906 23.04 24.4942 23.04 31.6535C23.04 38.8127 28.863 44.6164 36.0459 44.6164Z" fill="#7700FF"/>
<path d="M26.1068 93.7441H23.1971V94.7108H26.1068V93.7441Z" fill="#EDEBFF"/>
<path d="M111.54 94.7103H105.437V93.7436H111.54V94.7103ZM99.3348 94.7103H93.2327V93.7436H99.3348V94.7103ZM87.13 94.7103H81.0279V93.7436H87.13V94.7103ZM74.9253 94.7103H68.8232V93.7436H74.9253V94.7103ZM62.7206 94.7103H56.6184V93.7436H62.7206V94.7103ZM50.5158 94.7103H44.4137V93.7436H50.5158V94.7103ZM38.3111 94.7103H32.209V93.7436H38.3111V94.7103Z" fill="#EDEBFF"/>
<path d="M120.552 93.7441H117.643V94.7108H120.552V93.7441Z" fill="#EDEBFF"/>
<path d="M73.1592 76.639H69.1592V93.0728H73.1592V76.639Z" fill="#7700FF"/>
<path d="M97.8916 76.639H93.8916V93.0728H97.8916V76.639Z" fill="#7700FF"/>
<path d="M110.016 85.8226H106.016V93.0729H110.016V85.8226Z" fill="#7700FF"/>
<path d="M85.2832 69.3888H81.2832V93.0729H85.2832V69.3888Z" fill="#7700FF"/>
<path d="M66.6305 43.8826H68.7642L62.6345 30.2329L56.1943 43.8826H58.3281L59.7442 40.7699H65.2726L66.6305 43.8826ZM60.5589 38.9138L62.5569 34.5443L64.4773 38.9138H60.5589ZM70.3937 30.9869V43.8826H72.3723V38.6431H73.2646C74.4065 38.7051 75.5315 38.3474 76.4264 37.6378C76.833 37.2895 77.157 36.8557 77.375 36.3676C77.5931 35.8795 77.6997 35.3492 77.6873 34.815C77.6981 34.2012 77.5568 33.5943 77.2759 33.048C76.9951 32.5016 76.5834 32.0328 76.0773 31.6829C75.2223 31.1786 74.2373 30.9366 73.2452 30.9869H70.3937ZM72.3723 32.8043H73.2452C75.4953 32.8043 75.7863 34.0803 75.7863 34.7957C75.7863 35.9944 74.9716 36.8257 73.2646 36.8257H72.3723V32.8043ZM79.7047 30.9869V43.8826H81.6833V30.9869H79.7047Z" fill="white"/>
</svg>
