<svg width="100" height="114" viewBox="0 0 100 114" fill="none" xmlns="http://www.w3.org/2000/svg">
<path d="M7.42376 2.75863C5.45555 2.76089 3.56861 3.54375 2.17687 4.93549C0.785132 6.32723 0.00225746 8.21418 0 10.1824V105.902C0.00225746 107.87 0.785132 109.757 2.17687 111.148C3.56861 112.54 5.45555 113.323 7.42376 113.325H88.9272C90.8954 113.323 92.7824 112.54 94.1741 111.148C95.5658 109.757 96.3487 107.87 96.351 105.902V14.0383L82.1997 2.75863H7.42376Z" fill="#00163A"/>
<path d="M73.0754 30.4736H35.9679C35.734 30.4831 35.5006 30.4452 35.2817 30.3622C35.0628 30.2792 34.863 30.1529 34.6942 29.9908C34.5253 29.8286 34.391 29.634 34.2992 29.4187C34.2075 29.2033 34.1602 28.9717 34.1602 28.7376C34.1602 28.5035 34.2075 28.2718 34.2992 28.0565C34.391 27.8411 34.5253 27.6465 34.6942 27.4844C34.863 27.3222 35.0628 27.1959 35.2817 27.1129C35.5006 27.0299 35.734 26.992 35.9679 27.0015H73.0754C73.3092 26.992 73.5426 27.0299 73.7615 27.1129C73.9804 27.1959 74.1803 27.3222 74.3491 27.4844C74.5179 27.6465 74.6523 27.8411 74.744 28.0565C74.8358 28.2718 74.8831 28.5035 74.8831 28.7376C74.8831 28.9717 74.8358 29.2033 74.744 29.4187C74.6523 29.634 74.5179 29.8286 74.3491 29.9908C74.1803 30.1529 73.9804 30.2792 73.7615 30.3622C73.5426 30.4452 73.3092 30.4831 73.0754 30.4736V30.4736Z" fill="#EDEBFF"/>
<path d="M80.2366 36.4501H35.9679C35.734 36.4596 35.5006 36.4217 35.2817 36.3387C35.0628 36.2557 34.863 36.1294 34.6942 35.9672C34.5253 35.8051 34.391 35.6105 34.2992 35.3951C34.2075 35.1798 34.1602 34.9481 34.1602 34.714C34.1602 34.48 34.2075 34.2483 34.2992 34.0329C34.391 33.8176 34.5253 33.623 34.6942 33.4609C34.863 33.2987 35.0628 33.1724 35.2817 33.0894C35.5006 33.0064 35.734 32.9685 35.9679 32.978H80.2366C80.4705 32.9685 80.7039 33.0064 80.9228 33.0894C81.1416 33.1724 81.3415 33.2987 81.5103 33.4609C81.6792 33.623 81.8135 33.8176 81.9053 34.0329C81.997 34.2483 82.0443 34.48 82.0443 34.714C82.0443 34.9481 81.997 35.1798 81.9053 35.3951C81.8135 35.6105 81.6792 35.8051 81.5103 35.9672C81.3415 36.1294 81.1416 36.2557 80.9228 36.3387C80.7039 36.4217 80.4705 36.4596 80.2366 36.4501V36.4501Z" fill="#EDEBFF"/>
<path d="M73.0754 56.8485H35.9679C35.734 56.8579 35.5006 56.82 35.2817 56.7371C35.0628 56.6541 34.863 56.5277 34.6942 56.3656C34.5253 56.2035 34.391 56.0089 34.2992 55.7935C34.2075 55.5782 34.1602 55.3465 34.1602 55.1124C34.1602 54.8783 34.2075 54.6467 34.2992 54.4313C34.391 54.216 34.5253 54.0214 34.6942 53.8592C34.863 53.6971 35.0628 53.5707 35.2817 53.4878C35.5006 53.4048 35.734 53.3669 35.9679 53.3764H73.0754C73.3092 53.3669 73.5426 53.4048 73.7615 53.4878C73.9804 53.5707 74.1803 53.6971 74.3491 53.8592C74.5179 54.0214 74.6523 54.216 74.744 54.4313C74.8358 54.6467 74.8831 54.8783 74.8831 55.1124C74.8831 55.3465 74.8358 55.5782 74.744 55.7935C74.6523 56.0089 74.5179 56.2035 74.3491 56.3656C74.1803 56.5277 73.9804 56.6541 73.7615 56.7371C73.5426 56.82 73.3092 56.8579 73.0754 56.8485Z" fill="#EDEBFF"/>
<path d="M80.2366 62.7075H35.9679C35.734 62.717 35.5006 62.6791 35.2817 62.5961C35.0628 62.5132 34.863 62.3868 34.6942 62.2247C34.5253 62.0625 34.391 61.8679 34.2992 61.6526C34.2075 61.4372 34.1602 61.2056 34.1602 60.9715C34.1602 60.7374 34.2075 60.5057 34.2992 60.2904C34.391 60.075 34.5253 59.8804 34.6942 59.7183C34.863 59.5562 35.0628 59.4298 35.2817 59.3468C35.5006 59.2639 35.734 59.226 35.9679 59.2354H80.2366C80.4705 59.226 80.7039 59.2639 80.9228 59.3468C81.1416 59.4298 81.3415 59.5562 81.5103 59.7183C81.6792 59.8804 81.8135 60.075 81.9053 60.2904C81.997 60.5057 82.0443 60.7374 82.0443 60.9715C82.0443 61.2056 81.997 61.4372 81.9053 61.6526C81.8135 61.8679 81.6792 62.0625 81.5103 62.2247C81.3415 62.3868 81.1416 62.5132 80.9228 62.5961C80.7039 62.6791 80.4705 62.717 80.2366 62.7075Z" fill="#EDEBFF"/>
<path d="M73.0754 83.1059H35.9679C35.734 83.1154 35.5006 83.0775 35.2817 82.9945C35.0628 82.9115 34.863 82.7852 34.6942 82.623C34.5253 82.4609 34.391 82.2663 34.2992 82.051C34.2075 81.8356 34.1602 81.604 34.1602 81.3699C34.1602 81.1358 34.2075 80.9041 34.2992 80.6888C34.391 80.4734 34.5253 80.2788 34.6942 80.1167C34.863 79.9545 35.0628 79.8282 35.2817 79.7452C35.5006 79.6622 35.734 79.6243 35.9679 79.6338H73.0754C73.3092 79.6243 73.5426 79.6622 73.7615 79.7452C73.9804 79.8282 74.1803 79.9545 74.3491 80.1167C74.5179 80.2788 74.6523 80.4734 74.744 80.6888C74.8358 80.9041 74.8831 81.1358 74.8831 81.3699C74.8831 81.604 74.8358 81.8356 74.744 82.051C74.6523 82.2663 74.5179 82.4609 74.3491 82.623C74.1803 82.7852 73.9804 82.9115 73.7615 82.9945C73.5426 83.0775 73.3092 83.1154 73.0754 83.1059Z" fill="#EDEBFF"/>
<path d="M80.2366 88.965H35.9679C35.734 88.9744 35.5006 88.9365 35.2817 88.8536C35.0628 88.7706 34.863 88.6442 34.6942 88.4821C34.5253 88.3199 34.391 88.1254 34.2992 87.91C34.2075 87.6947 34.1602 87.463 34.1602 87.2289C34.1602 86.9948 34.2075 86.7632 34.2992 86.5478C34.391 86.3325 34.5253 86.1379 34.6942 85.9757C34.863 85.8136 35.0628 85.6872 35.2817 85.6043C35.5006 85.5213 35.734 85.4834 35.9679 85.4928H80.2366C80.4705 85.4834 80.7039 85.5213 80.9228 85.6043C81.1416 85.6872 81.3415 85.8136 81.5103 85.9757C81.6792 86.1379 81.8135 86.3325 81.9053 86.5478C81.997 86.7632 82.0443 86.9948 82.0443 87.2289C82.0443 87.463 81.997 87.6947 81.9053 87.91C81.8135 88.1254 81.6792 88.3199 81.5103 88.4821C81.3415 88.6442 81.1416 88.7706 80.9228 88.8536C80.7039 88.9365 80.4705 88.9744 80.2366 88.965V88.965Z" fill="#EDEBFF"/>
<path d="M20.5137 37.9204C23.9025 37.9204 26.6496 35.1733 26.6496 31.7846C26.6496 28.3958 23.9025 25.6487 20.5137 25.6487C17.125 25.6487 14.3779 28.3958 14.3779 31.7846C14.3779 35.1733 17.125 37.9204 20.5137 37.9204Z" fill="#7700FF"/>
<path d="M19.9071 34.1255C19.7691 34.126 19.6347 34.0816 19.5242 33.9991L19.5172 33.9941L18.0751 32.8909C17.9444 32.7861 17.8599 32.6342 17.8398 32.4679C17.8197 32.3016 17.8655 32.1339 17.9674 32.0009C18.0693 31.868 18.2193 31.7802 18.3851 31.7564C18.551 31.7326 18.7196 31.7747 18.8548 31.8737L19.7889 32.5899L21.9961 29.7104C22.0995 29.5756 22.2522 29.4874 22.4207 29.4652C22.5891 29.443 22.7594 29.4886 22.8942 29.5919V29.5919L22.8807 29.6109L22.8949 29.5919C23.0295 29.6954 23.1176 29.8481 23.1398 30.0165C23.162 30.1849 23.1165 30.3552 23.0133 30.49L20.4172 33.8753C20.3572 33.9532 20.28 34.0164 20.1916 34.0597C20.1033 34.103 20.0061 34.1254 19.9077 34.1252L19.9071 34.1255Z" fill="#00163A"/>
<path d="M21.1474 64.1778C24.5361 64.1778 27.2832 61.4307 27.2832 58.042C27.2832 54.6533 24.5361 51.9062 21.1474 51.9062C17.7586 51.9062 15.0115 54.6533 15.0115 58.042C15.0115 61.4307 17.7586 64.1778 21.1474 64.1778Z" fill="#EDEBFF"/>
<path d="M20.5137 90.4352C23.9025 90.4352 26.6496 87.6881 26.6496 84.2994C26.6496 80.9107 23.9025 78.1636 20.5137 78.1636C17.125 78.1636 14.3779 80.9107 14.3779 84.2994C14.3779 87.6881 17.125 90.4352 20.5137 90.4352Z" fill="#EDEBFF"/>
<path d="M99.0383 13.0052H86.4245C85.9685 13.0052 85.517 12.9154 85.0958 12.7409C84.6745 12.5664 84.2918 12.3106 83.9693 11.9882C83.6469 11.6658 83.3912 11.283 83.2167 10.8618C83.0422 10.4405 82.9524 9.98903 82.9524 9.53307V0.216716C82.9525 0.17597 82.964 0.136064 82.9857 0.101563C83.0073 0.067062 83.0383 0.0393602 83.075 0.0216276C83.1116 0.00389491 83.1526 -0.0031491 83.1931 0.00129542C83.2336 0.00573995 83.272 0.0214947 83.304 0.0467607L99.1728 12.6182C99.2081 12.6462 99.2338 12.6844 99.2463 12.7277C99.2588 12.7709 99.2576 12.8169 99.2429 12.8594C99.2281 12.9019 99.2005 12.9388 99.1638 12.9649C99.1271 12.991 99.0833 13.0051 99.0383 13.0052V13.0052Z" fill="#EDEBFF"/>
</svg>
