<svg width="125" height="105" viewBox="0 0 125 105" fill="none" xmlns="http://www.w3.org/2000/svg">
<path d="M120.033 86.1001H4.48177C2.01057 86.1001 0 84.0942 0 81.6285V67.7527H124.515V81.6285C124.515 84.0942 122.505 86.1001 120.033 86.1001V86.1001Z" fill="#7700FF"/>
<path d="M77.2132 83.7789H47.7461V104.779H77.2132V83.7789Z" fill="#7700FF"/>
<path d="M78.9856 102.126H45.9736V104.779H78.9856V102.126Z" fill="#7700FF"/>
<path d="M124.405 73.6105H0.000976562V3.06862C0.000976562 1.37661 1.38073 0 3.07659 0H121.33C123.026 0 124.405 1.37661 124.405 3.06862V73.6105V73.6105Z" fill="#3F3D56"/>
<path d="M62.48 2.5421C62.9694 2.5421 63.3662 2.14623 63.3662 1.65789C63.3662 1.16956 62.9694 0.773682 62.48 0.773682C61.9905 0.773682 61.5938 1.16956 61.5938 1.65789C61.5938 2.14623 61.9905 2.5421 62.48 2.5421Z" fill="white"/>
<path d="M121.414 3.20532H2.88086V69.7422H121.414V3.20532Z" fill="#00163A"/>
<path d="M73.7257 25.6763C71.1064 22.1961 67.311 20 63.0865 20C58.862 20 55.0666 22.1961 52.4473 25.6763C53.308 27.7919 54.7799 29.6028 56.6751 30.8777C58.5702 32.1526 60.8024 32.8336 63.0865 32.8336C65.3706 32.8336 67.6028 32.1526 69.4979 30.8777C71.3931 29.6028 72.865 27.7919 73.7257 25.6763V25.6763Z" fill="#EDEBFF"/>
<path d="M51.0641 27.7132C50.8775 27.633 50.7004 27.5324 50.536 27.4132C50.2874 27.2096 50.0883 26.9521 49.954 26.6602C50.1256 26.3076 50.1977 25.9148 50.1626 25.5242C50.1274 25.1336 49.9863 24.7601 49.7544 24.4438C49.5226 24.1275 49.2087 23.8805 48.8468 23.7295C48.4849 23.5784 48.0886 23.529 47.7006 23.5866C47.3127 23.6442 46.9479 23.8066 46.6454 24.0563C46.343 24.3059 46.1145 24.6334 45.9845 25.0034C45.8545 25.3734 45.828 25.7719 45.9079 26.1559C45.9877 26.5398 46.1708 26.8947 46.4375 27.1822C46.588 27.3419 46.7596 27.4802 46.9476 27.5932C47.1919 27.7346 47.3907 27.9428 47.5207 28.1933C47.7662 28.6889 48.1043 29.1329 48.5168 29.5013C48.94 29.8644 49.3972 30.1859 49.8819 30.4614C49.2146 32.3499 48.8363 34.3283 48.7598 36.3297C47.984 36.3428 47.2141 36.4671 46.4735 36.6987C46.0944 36.8166 45.7367 36.9949 45.4144 37.2268C45.3278 37.2163 45.2407 37.2103 45.1534 37.2088C44.7597 37.2087 44.3735 37.3165 44.0367 37.5202C43.6998 37.724 43.4252 38.0161 43.2425 38.3648C43.0598 38.7135 42.976 39.1055 43.0002 39.4984C43.0244 39.8914 43.1556 40.2702 43.3797 40.5938C43.6038 40.9175 43.9123 41.1736 44.2715 41.3346C44.6308 41.4955 45.0273 41.555 45.418 41.5067C45.8088 41.4584 46.1788 41.3041 46.4881 41.0605C46.7974 40.817 47.0341 40.4934 47.1726 40.1249C47.2578 39.8873 47.4067 39.6776 47.6031 39.5189C47.7994 39.3602 48.0355 39.2585 48.2858 39.2249C48.47 39.2026 48.6553 39.1906 48.8408 39.1889C49.0986 42.0119 49.9744 44.7436 51.4061 47.1903C50.134 48.1774 49.3509 49.2544 49.0208 50.4485C48.9592 50.4827 48.9018 50.5239 48.8498 50.5715C48.7594 50.6423 48.6751 50.7206 48.5978 50.8055C48.3407 51.0882 48.1635 51.4342 48.0842 51.808C48.0049 52.1818 48.0266 52.5699 48.1468 52.9326C48.267 53.2953 48.4816 53.6195 48.7685 53.8719C49.0553 54.1243 49.4042 54.2959 49.7792 54.369C50.1543 54.4422 50.5421 54.4142 50.9028 54.2881C51.2635 54.162 51.5841 53.9421 51.8319 53.6512C52.0796 53.3603 52.2455 53.0087 52.3125 52.6325C52.3795 52.2564 52.3452 51.8691 52.2132 51.5105C52.1152 51.2502 52.0962 50.9666 52.1586 50.6955C52.2211 50.4244 52.3622 50.1777 52.5642 49.9865C52.726 49.8311 52.8963 49.6849 53.0743 49.5484C55.5076 52.3896 58.4029 54.2107 62.0183 54.4267V35.1507C57.2388 34.8896 53.0743 31.7785 51.0641 27.7132ZM81.0166 37.2298C80.9293 37.231 80.8421 37.237 80.7555 37.2478C80.4301 37.0211 80.0733 36.8432 79.6964 36.7197C78.956 36.4873 78.186 36.363 77.4101 36.3507C77.3269 34.351 76.9487 32.3746 76.288 30.4854C76.7728 30.2099 77.2299 29.8884 77.6532 29.5253C78.0789 29.1359 78.4288 28.6711 78.6853 28.1543C78.8055 27.9298 78.9906 27.7469 79.2163 27.6292V27.6292C79.5824 27.4235 79.8803 27.1153 80.0735 26.7425C80.2666 26.3697 80.3466 25.9486 80.3036 25.5309C80.2606 25.1133 80.0965 24.7173 79.8314 24.3916C79.5664 24.066 79.2119 23.8249 78.8117 23.6981C78.4114 23.5712 77.9828 23.564 77.5785 23.6775C77.1743 23.791 76.812 24.0201 76.5362 24.3367C76.2604 24.6533 76.0832 25.0436 76.0263 25.4596C75.9694 25.8756 76.0354 26.2992 76.216 26.6782C76.0839 26.9715 75.8844 27.2295 75.6339 27.4312C75.4655 27.5703 75.2892 27.6995 75.1059 27.8182C73.0956 31.8805 68.9342 34.9046 64.1606 35.1656V54.4597C67.761 54.2437 70.6744 52.4136 73.1046 49.5814C73.2937 49.7314 73.4527 49.8665 73.5877 49.9925C73.7982 50.1877 73.9464 50.4408 74.0136 50.7199C74.0809 50.9991 74.0642 51.2918 73.9657 51.5615C73.8344 51.9197 73.8006 52.3063 73.8677 52.6818C73.9348 53.0574 74.1004 53.4083 74.3477 53.6989C74.5949 53.9894 74.9148 54.2091 75.2748 54.3354C75.6347 54.4618 76.0218 54.4903 76.3964 54.4181C76.771 54.3458 77.1196 54.1754 77.4068 53.9242C77.6939 53.6731 77.9092 53.3502 78.0306 52.9885C78.152 52.6269 78.1752 52.2395 78.0978 51.866C78.0205 51.4924 77.8453 51.1461 77.5902 50.8625C77.5129 50.7776 77.4286 50.6993 77.3381 50.6285C77.2391 50.5505 77.1671 50.5055 77.1671 50.5055C76.8371 49.3054 76.057 48.2344 74.7668 47.2473C76.1986 44.8006 77.0744 42.0689 77.3321 39.2459C77.5097 39.248 77.687 39.26 77.8632 39.2819C78.1186 39.3149 78.3605 39.4158 78.5637 39.5741C78.7669 39.7324 78.9239 39.9423 79.0183 40.1819C79.1975 40.6384 79.5271 41.0201 79.9526 41.264C80.3782 41.5078 80.8741 41.5991 81.3586 41.5229C81.8431 41.4466 82.287 41.2073 82.6171 40.8446C82.9471 40.4819 83.1435 40.0174 83.1738 39.5279C83.1888 39.234 83.1442 38.9401 83.0429 38.6638C82.9416 38.3875 82.7856 38.1345 82.5842 37.9199C82.3827 37.7053 82.1401 37.5336 81.8707 37.415C81.6014 37.2964 81.3108 37.2334 81.0166 37.2298V37.2298Z" fill="#EDEBFF"/>
</svg>
