<svg width="412" height="219" viewBox="0 0 412 219" fill="none" xmlns="http://www.w3.org/2000/svg">
<rect width="412" height="219" rx="8" fill="#8BA9FF"/>
<g clip-path="url(#clip0_7_144)">
<path d="M296.389 160.593V183.501H109.611V42.4987H296.389V160.593Z" fill="white"/>
<path d="M109.611 183.288V183.715H296.389V183.288H109.611ZM109.611 42.285V42.7124H296.389V42.285H109.611Z" fill="#F2F2F2"/>
<path d="M145.725 159.152H109.611V161.106H145.725C145.984 161.106 146.232 161.003 146.415 160.82C146.598 160.636 146.701 160.388 146.701 160.129C146.701 159.87 146.598 159.622 146.415 159.439C146.232 159.255 145.984 159.152 145.725 159.152V159.152Z" fill="#F2F2F2"/>
<path d="M145.725 152.314H109.611V154.267H145.725C145.984 154.267 146.232 154.164 146.415 153.981C146.598 153.798 146.701 153.55 146.701 153.291C146.701 153.032 146.598 152.783 146.415 152.6C146.232 152.417 145.984 152.314 145.725 152.314V152.314Z" fill="#F2F2F2"/>
<path d="M146.016 145.519C145.969 145.505 145.922 145.495 145.875 145.489C145.825 145.48 145.775 145.476 145.725 145.476H109.611V147.429H145.725C145.958 147.428 146.183 147.344 146.36 147.192C146.536 147.039 146.652 146.829 146.687 146.598C146.722 146.368 146.674 146.132 146.551 145.934C146.428 145.736 146.238 145.589 146.016 145.519Z" fill="#F2F2F2"/>
<path d="M158.926 142.856L155.745 128.726L154.708 124.123C154.665 123.935 154.586 123.757 154.475 123.6C154.364 123.442 154.222 123.309 154.06 123.206C153.897 123.103 153.715 123.033 153.525 123.001C153.335 122.968 153.141 122.973 152.953 123.016L151.386 123.371L138.822 126.209C138.634 126.251 138.457 126.33 138.3 126.441C138.143 126.552 138.009 126.693 137.906 126.856C137.804 127.018 137.734 127.2 137.701 127.389C137.669 127.579 137.674 127.773 137.716 127.961C137.042 134.248 138.374 140.048 141.264 145.476C141.477 145.882 141.704 146.288 141.938 146.694C142.001 146.975 142.145 147.23 142.353 147.429C142.527 147.596 142.741 147.718 142.974 147.783C143.207 147.848 143.453 147.854 143.689 147.801L145.337 147.429L146.353 147.198L157.82 144.608C158.199 144.522 158.528 144.29 158.735 143.961C158.943 143.633 159.011 143.235 158.926 142.856V142.856Z" fill="#E6E6E6"/>
<path d="M157.611 142.069L154.58 128.628L153.854 125.401C153.774 125.046 153.556 124.737 153.249 124.542C152.942 124.347 152.57 124.283 152.215 124.362L151.25 124.58L140.068 127.106C139.714 127.186 139.405 127.404 139.21 127.712C139.016 128.02 138.951 128.392 139.031 128.747C139.129 133.641 139.642 138.082 141.746 140.792C141.986 141.845 142.5 142.817 143.236 143.608C143.973 144.398 144.905 144.979 145.939 145.292C145.964 145.301 145.986 145.309 146.011 145.318C146.028 145.322 146.05 145.33 146.067 145.335C147.04 145.609 148.065 145.635 149.051 145.412L156.574 143.711C156.928 143.631 157.237 143.413 157.432 143.105C157.626 142.797 157.691 142.425 157.611 142.069V142.069Z" fill="white"/>
<path d="M146.472 131.588C146.719 131.302 147.053 131.104 147.422 131.023C147.791 130.943 148.177 130.984 148.521 131.141C148.865 131.324 149.14 131.613 149.305 131.966C149.47 132.319 149.517 132.716 149.437 133.097C149.304 133.979 148.844 134.781 148.803 135.684C148.765 136.08 148.834 136.478 149.002 136.838C149.171 137.197 149.432 137.505 149.76 137.73C150.261 138.035 150.778 137.28 150.272 136.973C149.443 136.469 149.721 135.361 149.962 134.605C150.261 133.66 150.575 132.698 150.204 131.726C150.039 131.318 149.776 130.959 149.436 130.68C149.097 130.401 148.694 130.212 148.263 130.13C147.832 130.047 147.387 130.075 146.969 130.209C146.551 130.343 146.174 130.58 145.871 130.898C145.475 131.326 146.071 132.019 146.472 131.588Z" fill="#7700FF"/>
<path d="M150.496 140.366C151.001 140.366 151.41 139.957 151.41 139.452C151.41 138.946 151.001 138.537 150.496 138.537C149.992 138.537 149.583 138.946 149.583 139.452C149.583 139.957 149.992 140.366 150.496 140.366Z" fill="#6C63FF"/>
<path d="M259.456 104.683C258.532 104.08 257.477 103.707 256.38 103.594C255.283 103.481 254.175 103.631 253.147 104.033C252.12 104.434 251.203 105.075 250.473 105.903C249.742 106.73 249.22 107.72 248.948 108.79L236.222 141.986L214.347 129.554C214.251 128.125 213.705 126.763 212.788 125.663C211.871 124.564 210.63 123.783 209.243 123.434C207.855 123.084 206.393 123.183 205.065 123.717C203.738 124.251 202.613 125.192 201.853 126.405C201.092 127.618 200.735 129.041 200.833 130.47C200.93 131.899 201.477 133.26 202.395 134.359C203.313 135.457 204.555 136.236 205.943 136.585C207.331 136.933 208.793 136.832 210.12 136.297C214.726 141.219 234.698 161.399 242.966 153.514C249.916 146.887 259.945 121.2 262.359 112.33C262.746 110.912 262.674 109.407 262.152 108.033C261.63 106.659 260.687 105.486 259.456 104.683H259.456Z" fill="#A0616A"/>
<path d="M235.559 154.905L239.575 173.077L268.941 175.736L271.64 159.913L235.559 154.905Z" fill="#A0616A"/>
<path d="M276.671 183.288H234.981L237.145 176.779L237.854 167.12L238.26 167.129L270.322 167.663L270.903 167.671L271.889 175.963C273.769 178.205 275.374 180.664 276.671 183.288V183.288Z" fill="#2F2E41"/>
<path d="M253.89 95.8763L268.507 95.1224L275.295 105.862C275.295 105.862 281.846 107.207 280.961 122.277C280.075 137.346 271.642 151.362 271.642 151.362L272.268 149.212L271.18 152.324L271.32 154.072L272.804 155.923L272.957 157.837L271.642 160.866L273.43 163.766L235.827 160.119L234.452 155.104L236.459 152.412L235.339 148.899L237.023 145.523L237.901 144.79C237.901 144.79 228.292 130.338 239.323 119.453L243.75 111.918L248.702 105.868L253.89 95.8763Z" fill="#00163A"/>
<path d="M205.921 117.001C201.967 115.587 196.846 116.138 194.071 119.586C191.585 122.673 191.287 127.59 194.449 130.345C198.3 133.699 203.631 132.465 207.835 130.573C211.682 128.841 215.915 126.049 215.856 121.311C215.847 120.093 215.548 118.895 214.984 117.816C214.421 116.736 213.608 115.807 212.614 115.105C211.605 114.422 210.45 113.987 209.242 113.834C208.034 113.681 206.807 113.814 205.661 114.224C204.645 114.595 205.084 116.232 206.111 115.858C206.937 115.543 207.824 115.417 208.705 115.489C209.587 115.561 210.441 115.828 211.207 116.272C211.972 116.716 212.629 117.325 213.129 118.055C213.63 118.785 213.961 119.617 214.1 120.491C214.694 124.423 211.336 126.973 208.216 128.526C204.793 130.229 200.436 131.86 196.772 129.902C193.637 128.229 193.064 124.412 194.801 121.48C196.956 117.848 201.807 117.326 205.469 118.636C206.497 119.004 206.94 117.367 205.919 117.002L205.921 117.001Z" fill="#161C22"/>
<path d="M130.24 84.1024C127.4 83.0869 123.722 83.4827 121.729 85.959C119.943 88.1768 119.73 91.7079 122.001 93.6868C124.766 96.096 128.596 95.2096 131.615 93.8505C134.378 92.6068 137.419 90.6023 137.376 87.198C137.369 86.3233 137.155 85.4628 136.75 84.6876C136.345 83.9125 135.761 83.2451 135.047 82.7407C134.323 82.2503 133.493 81.9375 132.625 81.8276C131.758 81.7176 130.876 81.8136 130.052 82.1077C129.323 82.3744 129.638 83.5515 130.375 83.2818C130.969 83.0557 131.606 82.9649 132.239 83.0162C132.873 83.0675 133.487 83.2595 134.036 83.5783C134.586 83.897 135.058 84.3345 135.418 84.8589C135.777 85.3833 136.016 85.9813 136.115 86.6095C136.542 89.435 134.13 91.2651 131.889 92.3794C129.43 93.6026 126.3 94.7728 123.668 93.3675C121.417 92.1657 121.005 89.4239 122.254 87.3186C123.801 84.7085 127.285 84.3345 129.916 85.2756C130.654 85.5397 130.972 84.364 130.239 84.1016L130.24 84.1024Z" fill="#F2F2F2"/>
<path d="M164.751 92.1649C168.843 91.0507 171.549 87.8972 170.794 85.1214C170.04 82.3455 166.112 80.9985 162.02 82.1127C157.928 83.2269 155.222 86.3804 155.976 89.1563C156.73 91.9321 160.659 93.2791 164.751 92.1649Z" fill="#F2F2F2"/>
<path d="M145.726 82.4864L145.741 92.0575C145.741 92.2276 145.809 92.3906 145.929 92.5109C146.049 92.6311 146.212 92.6986 146.381 92.6986C146.551 92.6986 146.714 92.6311 146.834 92.5109C146.954 92.3906 147.022 92.2276 147.022 92.0575L147.007 82.4864C147.007 82.3164 146.939 82.1533 146.819 82.0331C146.699 81.9129 146.536 81.8453 146.367 81.8453C146.197 81.8453 146.034 81.9129 145.914 82.0331C145.794 82.1533 145.726 82.3164 145.726 82.4864Z" fill="#F2F2F2"/>
<path d="M141.259 87.6349L150.578 87.6575C150.748 87.6575 150.91 87.59 151.031 87.4697C151.151 87.3495 151.218 87.1864 151.218 87.0164C151.218 86.8464 151.151 86.6833 151.031 86.5631C150.91 86.4429 150.748 86.3753 150.578 86.3753L141.259 86.3527C141.089 86.3527 140.926 86.4202 140.806 86.5404C140.686 86.6607 140.619 86.8237 140.619 86.9938C140.619 87.1638 140.686 87.3268 140.806 87.4471C140.926 87.5673 141.089 87.6349 141.259 87.6349Z" fill="#F2F2F2"/>
<path d="M110.111 92.3033C110.123 92.4482 110.077 92.592 109.983 92.7032C109.89 92.8144 109.756 92.8842 109.611 92.8974V91.6408C109.758 91.676 109.889 91.7614 109.98 91.8823C110.071 92.0031 110.117 92.152 110.111 92.3033Z" fill="#F2F2F2"/>
<path d="M112.401 93.1461C112.872 93.1461 113.255 92.7634 113.255 92.2913C113.255 91.8192 112.872 91.4365 112.401 91.4365C111.929 91.4365 111.547 91.8192 111.547 92.2913C111.547 92.7634 111.929 93.1461 112.401 93.1461Z" fill="#F2F2F2"/>
<path d="M140.944 170.077C139.39 170.077 138.122 171.132 138.122 172.427C138.122 173.722 139.39 174.778 140.944 174.778H296.389V170.077H140.944Z" fill="white"/>
<path d="M259 170V175H171.098C169.943 175 169 173.877 169 172.5C169 171.123 169.943 170 171.098 170H259Z" fill="#7700FF"/>
<path d="M254.696 177.403C257.29 177.403 259.392 175.298 259.392 172.701C259.392 170.105 257.29 168 254.696 168C252.103 168 250 170.105 250 172.701C250 175.298 252.103 177.403 254.696 177.403Z" fill="#7700FF"/>
<path d="M135.569 102.911H109.611V104.869H135.569C135.697 104.869 135.824 104.843 135.943 104.794C136.061 104.745 136.169 104.673 136.26 104.582C136.351 104.491 136.423 104.383 136.472 104.265C136.521 104.146 136.546 104.019 136.546 103.89C136.546 103.761 136.521 103.634 136.472 103.515C136.423 103.397 136.351 103.289 136.26 103.198C136.169 103.107 136.061 103.035 135.943 102.986C135.824 102.937 135.697 102.911 135.569 102.911V102.911Z" fill="white"/>
<path d="M200.617 87.3455C201.464 85.1658 204.599 84.4495 206.333 85.9624C207.369 86.8655 208.141 88.1058 209.509 88.549C210.987 89.0273 212.388 88.2375 213.651 87.5536C214.3 87.154 215.017 86.876 215.766 86.7335C216.445 86.6577 217.131 86.7158 217.787 86.9044C219.244 87.2891 220.581 88.0212 221.966 88.5978C223.454 89.2317 225.06 89.5434 226.677 89.5124C228.601 89.4833 230.525 89.4073 232.448 89.353L238.91 89.1713C241.034 89.16 243.153 88.9783 245.248 88.6281C246.056 88.4738 245.714 87.2378 244.906 87.3917C242.991 87.7098 241.054 87.8743 239.112 87.8836C237.138 87.9406 235.164 87.9961 233.189 88.0503C231.183 88.1067 229.172 88.1678 227.164 88.2212C226.27 88.2782 225.372 88.231 224.489 88.0806C223.74 87.9115 223.009 87.6712 222.306 87.363C220.876 86.7621 219.491 86.0005 217.975 85.6312C216.531 85.2611 215.002 85.4269 213.671 86.0979C212.449 86.6963 210.946 87.9289 209.539 87.1771C208.316 86.5236 207.645 85.1576 206.436 84.4618C203.904 83.0048 200.424 84.3242 199.383 87.004C199.084 87.7733 200.322 88.1067 200.618 87.3459L200.617 87.3455Z" fill="#F2F2F2"/>
<path d="M203.901 97.5966C204.809 96.2499 205.832 94.7018 207.49 94.2437C207.849 94.1285 208.228 94.0937 208.602 94.1419C208.976 94.19 209.334 94.3199 209.652 94.5223C210.24 94.9181 210.689 95.496 211.251 95.9268C212.438 96.8358 213.75 96.6961 215.027 96.0661C216.105 95.5344 217.321 94.4847 218.601 94.9053C219.495 95.1989 220.191 95.9174 221.057 96.2836C221.456 96.4828 221.898 96.5836 222.345 96.5776C222.791 96.5716 223.23 96.4589 223.625 96.249C223.697 96.2065 223.761 96.1501 223.812 96.0831C223.862 96.016 223.899 95.9396 223.921 95.8581C223.942 95.7767 223.947 95.6918 223.936 95.6084C223.924 95.525 223.897 95.4447 223.854 95.372C223.812 95.2993 223.755 95.2357 223.688 95.1848C223.621 95.1339 223.545 95.0967 223.464 95.0754C223.382 95.054 223.298 95.0489 223.214 95.0604C223.131 95.0718 223.051 95.0996 222.978 95.1421C222.24 95.5746 221.378 95.0638 220.746 94.6544C220.089 94.1455 219.335 93.777 218.53 93.5718C217.1 93.3299 215.886 94.1591 214.687 94.801C214.161 95.1517 213.54 95.3318 212.908 95.3169C212.209 95.2228 211.703 94.6382 211.221 94.18C210.708 93.637 210.071 93.2264 209.366 92.9833C208.556 92.7666 207.7 92.8016 206.911 93.0837C205.032 93.7282 203.863 95.3694 202.797 96.95C202.335 97.6338 203.444 98.2779 203.903 97.597L203.901 97.5966Z" fill="#F2F2F2"/>
<path d="M187.981 83.2737C187.775 83.3821 187.54 83.4257 187.309 83.3987C187.077 83.3718 186.859 83.2756 186.683 83.1226C186.507 82.9697 186.381 82.7671 186.321 82.5414C186.262 82.3157 186.272 82.0773 186.35 81.8573C186.722 80.9127 188.078 81.1307 188.592 81.7953C189.324 82.7433 188.986 84.0575 188.315 84.929C187.484 86.0086 186.204 86.6219 185.014 87.216C184.908 87.2814 184.822 87.3762 184.769 87.489C184.715 87.6017 184.695 87.7276 184.711 87.8515C184.727 87.9754 184.779 88.092 184.86 88.1871C184.941 88.2823 185.047 88.352 185.167 88.3879L189.87 89.4098C190.673 89.5846 191.017 88.3486 190.211 88.1734L185.508 87.1515L185.661 88.3234C186.998 87.6558 188.361 86.9416 189.297 85.7385C189.743 85.2164 190.048 84.5892 190.184 83.9161C190.32 83.243 190.282 82.5463 190.074 81.8919C189.871 81.2737 189.461 80.7447 188.913 80.3947C188.365 80.0448 187.713 79.8953 187.067 79.9716C186.744 80.0089 186.433 80.113 186.153 80.2775C185.873 80.442 185.63 80.6631 185.44 80.9268C185.25 81.1905 185.117 81.4909 185.05 81.8089C184.983 82.1269 184.982 82.4555 185.049 82.7736C185.363 84.4123 187.219 85.0888 188.63 84.3819C189.367 84.0127 188.719 82.9061 187.984 83.275L187.981 83.2737Z" fill="#F2F2F2"/>
<path d="M192.45 89.9406C192.922 89.9406 193.304 89.5579 193.304 89.0858C193.304 88.6138 192.922 88.231 192.45 88.231C191.979 88.231 191.596 88.6138 191.596 89.0858C191.596 89.5579 191.979 89.9406 192.45 89.9406Z" fill="#F2F2F2"/>
<path d="M213.27 102.984H185.026C184.768 102.984 184.519 103.087 184.336 103.27C184.154 103.453 184.051 103.702 184.051 103.961C184.051 104.22 184.154 104.468 184.336 104.651C184.519 104.834 184.768 104.937 185.026 104.937H213.268C213.526 104.937 213.774 104.834 213.957 104.651C214.14 104.468 214.243 104.22 214.243 103.961C214.243 103.702 214.14 103.453 213.957 103.27C213.774 103.087 213.526 102.984 213.268 102.984H213.27Z" fill="#F2F2F2"/>
<path d="M192.693 123.176H157.927C157.813 123.176 157.705 123.131 157.625 123.051C157.545 122.971 157.5 122.862 157.5 122.749C157.5 122.635 157.545 122.526 157.625 122.446C157.705 122.366 157.813 122.321 157.927 122.321H192.693C192.806 122.321 192.914 122.366 192.995 122.446C193.075 122.526 193.12 122.635 193.12 122.749C193.12 122.862 193.075 122.971 192.995 123.051C192.914 123.131 192.806 123.176 192.693 123.176Z" fill="#3F3D56"/>
<path d="M155.513 128.732C157.871 128.732 159.783 126.819 159.783 124.458C159.783 122.098 157.871 120.184 155.513 120.184C153.156 120.184 151.244 122.098 151.244 124.458C151.244 126.819 153.156 128.732 155.513 128.732Z" fill="#7700FF"/>
<path d="M128.245 62.2957C127.476 63.3942 126.225 64.031 125.021 64.6293C121.068 66.5954 117.113 68.56 113.157 70.5231L113.37 70.7796L113.52 70.9634L113.729 71.2113C112.64 72.673 111.552 74.1332 110.463 75.5921C110.177 75.9725 109.895 76.3571 109.609 76.7375V52.9144C109.895 52.799 110.177 52.6836 110.463 52.5725C113.183 51.4783 115.901 50.387 118.617 49.2986C120.031 48.7344 121.533 48.1575 123.028 48.4182C126.037 48.9396 127.438 52.3716 128.309 55.3035C128.998 57.62 129.63 60.3126 128.245 62.2957Z" fill="white"/>
<path d="M113.992 71.4036C112.818 72.9807 111.642 74.5592 110.465 76.1391C110.179 76.5195 109.897 76.9042 109.611 77.2846V76.1947C109.897 75.8143 110.183 75.4297 110.465 75.0493C111.468 73.7072 112.469 72.3652 113.467 71.0232C113.483 71.0013 113.501 70.9812 113.522 70.9634C113.787 70.7411 114.226 71.0873 113.992 71.4036Z" fill="#CCCCCC"/>
<path d="M128.763 62.0735C128.106 63.2702 126.936 64.0096 125.758 64.6208C124.413 65.3174 123.043 65.9756 121.685 66.6509C118.91 68.0271 116.139 69.4034 113.373 70.7796C113.347 70.7924 113.317 70.8052 113.291 70.818C112.916 71.0061 112.532 69.7923 112.946 69.2068C114.589 66.8817 120.169 66.6808 122.774 65.3858C123.431 65.0567 124.088 64.7319 124.75 64.4028C125.356 64.1199 125.945 63.8017 126.513 63.4497C127.541 62.8478 128.291 61.8653 128.601 60.7144C128.814 59.635 128.789 58.5221 128.529 57.4533C128.289 56.2951 127.968 55.1554 127.568 54.0427C126.817 51.9143 125.6 49.32 123.175 48.7729C122.031 48.5165 120.861 48.8114 119.785 49.196C118.53 49.6491 117.296 50.179 116.058 50.6748C114.192 51.4228 112.328 52.1707 110.465 52.9187C110.179 53.0341 109.897 53.1452 109.611 53.2606V52.5661C109.897 52.4507 110.179 52.3353 110.465 52.2199C112.839 51.271 115.214 50.3194 117.591 49.3648C118.76 48.8274 119.982 48.412 121.237 48.1254C122.434 47.8911 123.676 48.1024 124.729 48.7195C125.781 49.4218 126.628 50.3907 127.184 51.5275C127.793 52.7153 128.278 53.9627 128.631 55.2501C129.269 57.4106 129.92 59.9664 128.763 62.0735Z" fill="#CCCCCC"/>
<path d="M113.28 56.7234C113.277 56.7315 113.274 56.7396 113.27 56.7477C112.665 56.4957 111.986 56.4914 111.378 56.7356C110.77 56.9799 110.282 57.4532 110.019 58.0538C109.755 58.6567 109.739 59.3393 109.975 59.9538C110.21 60.5684 110.677 61.0655 111.276 61.3375V61.3375L111.307 61.3512L115.857 63.3472L117.864 58.7608L117.851 58.7552C117.854 58.7475 117.858 58.7403 117.861 58.7326C118.127 58.1244 118.141 57.4352 117.9 56.8168C117.659 56.1983 117.182 55.7012 116.574 55.4348V55.4348C115.967 55.1684 115.278 55.1544 114.66 55.3961C114.043 55.6378 113.546 56.1152 113.28 56.7234V56.7234Z" fill="#7700FF"/>
<path d="M296.389 143.993C296.115 143.411 295.834 142.822 295.535 142.228C294.463 140.061 293.246 137.795 291.953 135.522C288.397 129.239 284.268 122.871 281.019 118.289V118.285C279.709 116.434 278.539 114.883 277.608 113.737C277.03 113.027 276.318 112.438 275.512 112.004C274.705 111.571 273.821 111.301 272.911 111.211C272 111.122 271.081 111.213 270.205 111.48C269.33 111.748 268.516 112.186 267.811 112.77C267.106 113.353 266.523 114.071 266.096 114.881C265.669 115.692 265.406 116.578 265.323 117.491C265.24 118.403 265.338 119.323 265.612 120.197C265.885 121.071 266.329 121.883 266.917 122.584L277.45 138.599L282.407 146.138L286.445 152.284L272.587 158.682L270.32 159.729L263.639 162.815L263.6 162.832C263.588 162.824 263.571 162.815 263.558 162.807C263.229 162.606 262.883 162.433 262.525 162.29C261.641 161.941 260.694 161.782 259.745 161.824C259.043 161.853 258.35 161.993 257.692 162.238C256.588 162.646 255.61 163.335 254.853 164.236C254.096 165.138 253.587 166.221 253.376 167.38C253.346 167.517 253.329 167.658 253.311 167.803C253.308 167.824 253.307 167.846 253.307 167.867H253.303C253.158 169.239 253.433 170.623 254.092 171.835C254.751 173.048 255.762 174.031 256.992 174.654C257.077 174.697 257.162 174.74 257.252 174.778C257.679 174.973 258.125 175.121 258.584 175.218C259.157 175.344 259.744 175.394 260.33 175.368C260.875 175.344 261.416 175.255 261.94 175.103H261.944C262.244 175.014 262.538 174.906 262.823 174.778C263.76 174.352 264.588 173.718 265.245 172.926C265.901 172.133 266.37 171.201 266.615 170.201C266.888 170.167 267.195 170.124 267.533 170.077C268.224 169.978 269.044 169.854 269.97 169.705C270.337 169.645 270.722 169.581 271.119 169.513C278.061 168.316 289.404 165.769 295.535 161.264C295.834 161.042 296.12 160.819 296.389 160.593V143.993Z" fill="#A0616A"/>
<path d="M284.541 15H121.459C118.318 15.0037 115.306 16.2545 113.085 18.4779C110.864 20.7013 109.615 23.7159 109.611 26.8603V199.144C109.615 202.288 110.864 205.302 113.084 207.525C115.305 209.748 118.316 210.999 121.456 211.002H284.539C287.68 210.999 290.691 209.749 292.912 207.527C295.133 205.304 296.383 202.29 296.387 199.146V26.8624C296.383 23.7184 295.135 20.7039 292.915 18.4802C290.695 16.2564 287.684 15.0049 284.544 15H284.541ZM295.535 199.144C295.531 202.061 294.371 204.858 292.31 206.92C290.249 208.983 287.455 210.142 284.541 210.145H121.459C118.545 210.142 115.751 208.983 113.69 206.92C111.629 204.858 110.469 202.061 110.465 199.144V26.8603C110.468 23.9424 111.627 21.1449 113.688 19.0816C115.749 17.0183 118.544 15.8578 121.459 15.8548H284.541C287.456 15.8578 290.251 17.0183 292.312 19.0816C294.373 21.1449 295.532 23.9424 295.535 26.8603V199.144ZM109.611 42.7124V183.074H110.465V42.7124H109.611Z" fill="#3F3D56"/>
<path d="M139.5 209C153.583 209 165 197.583 165 183.5C165 169.417 153.583 158 139.5 158C125.417 158 114 169.417 114 183.5C114 197.583 125.417 209 139.5 209Z" fill="#7700FF" fill-opacity="0.7"/>
<path d="M135.667 197C135.445 196.999 135.226 196.955 135.022 196.868C134.718 196.745 134.457 196.531 134.275 196.254C134.092 195.978 133.997 195.653 134 195.321V171.676C134 171.345 134.097 171.021 134.279 170.745C134.46 170.469 134.719 170.254 135.022 170.128C135.324 170.001 135.658 169.968 135.979 170.032C136.3 170.097 136.595 170.257 136.827 170.491L148.515 182.314C148.826 182.628 149 183.054 149 183.498C149 183.943 148.826 184.369 148.515 184.683L136.827 196.506C136.675 196.662 136.495 196.786 136.296 196.871C136.097 196.955 135.883 196.999 135.667 197Z" fill="white"/>
<path d="M264.351 70.1543C268.595 70.1543 272.036 66.71 272.036 62.4612C272.036 58.2123 268.595 54.768 264.351 54.768C260.107 54.768 256.666 58.2123 256.666 62.4612C256.666 66.71 260.107 70.1543 264.351 70.1543Z" fill="#2F2E41"/>
<path d="M264.413 73.606C260.744 71.469 259.738 66.5967 261.996 62.9988C263.081 61.2714 264.807 60.0461 266.794 59.5923C268.781 59.1386 270.866 59.4936 272.592 60.5793C276.185 62.8403 273.489 67.2202 275.009 71.1865C277.162 76.7995 269.362 76.4858 264.413 73.606Z" fill="#2F2E41"/>
<path d="M246.571 71.2249C246.303 71.8481 238.069 71.7805 237.691 72.3362C234.783 76.6195 245.265 94.8433 242.357 99.134L241.952 99.6173C242.9 99.1798 243.812 98.6652 244.676 98.0787C244.754 96.3234 244.832 94.5621 244.915 92.8068C245.786 93.9222 246.489 95.1594 247.001 96.479C247.679 96.0011 248.234 95.1156 251.136 93.3735C252.311 92.0815 253.665 90.9654 255.157 90.0595L246.571 71.2249Z" fill="#2F2E41"/>
<path d="M250.653 91.4352C258.18 91.4352 264.282 85.3263 264.282 77.7906C264.282 70.2549 258.18 64.146 250.653 64.146C243.125 64.146 237.023 70.2549 237.023 77.7906C237.023 85.3263 243.125 91.4352 250.653 91.4352Z" fill="#A0616A"/>
<path d="M261.004 97.4466C259.894 96.5181 259.122 95.2487 258.807 93.8355C258.555 95.5513 258.621 97.2989 259.001 98.9908C258.263 99.5464 257.547 100.074 256.87 100.552C256.358 99.2325 255.655 97.9953 254.784 96.8799C254.701 98.6352 254.623 100.397 254.545 102.152C253.681 102.738 252.769 103.253 251.821 103.69L252.226 103.207C255.134 98.9181 247.609 91.0241 250.518 86.7407C251.334 85.5406 247.649 76.0558 244.84 75.6284C242.343 75.2506 242.449 75.9729 240.029 76.5007C239.778 75.4517 239.387 74.441 238.869 73.4953C239.007 74.5491 238.975 75.6182 238.775 76.6619C237.914 76.6952 237.238 76.1464 236.322 76.0062C230.478 75.1117 231.071 68.7832 232.698 66.7787C234.326 64.7742 239.746 64.1789 242.243 63.5305C242.47 63.3083 242.987 63.4472 243.214 63.236C248 58.8514 254.4 58.1252 260.16 60.0686C266.303 62.141 270.133 66.1522 272.098 72.3349L272.662 77.2833C273.168 78.8745 272.531 86.2774 272.099 87.89C270.412 94.1586 266.826 91.0318 261.004 97.4466Z" fill="#2F2E41"/>
</g>
<defs>
<clipPath id="clip0_7_144">
<rect width="260" height="196" fill="white" transform="translate(73 15)"/>
</clipPath>
</defs>
</svg>
