<svg width="22" height="23" viewBox="0 0 22 23" fill="none" xmlns="http://www.w3.org/2000/svg">
<path d="M12.7011 6.30096C12.5178 6.48789 12.4152 6.7392 12.4152 7.00096C12.4152 7.26271 12.5178 7.51403 12.7011 7.70096L14.3011 9.30096C14.488 9.48418 14.7393 9.58681 15.0011 9.58681C15.2628 9.58681 15.5141 9.48418 15.7011 9.30096L19.4711 5.53096C19.9739 6.64215 20.1262 7.88019 19.9075 9.0801C19.6889 10.28 19.1098 11.3848 18.2474 12.2472C17.3849 13.1097 16.2801 13.6888 15.0802 13.9074C13.8803 14.126 12.6423 13.9738 11.5311 13.471L4.62108 20.381C4.22325 20.7788 3.68369 21.0023 3.12108 21.0023C2.55847 21.0023 2.0189 20.7788 1.62108 20.381C1.22325 19.9831 0.999756 19.4436 0.999756 18.881C0.999756 18.3183 1.22325 17.7788 1.62108 17.381L8.53108 10.471C8.02824 9.35977 7.87599 8.12172 8.09462 6.92181C8.31324 5.7219 8.89236 4.61711 9.7548 3.75468C10.6172 2.89224 11.722 2.31313 12.9219 2.0945C14.1218 1.87587 15.3599 2.02812 16.4711 2.53096L12.7111 6.29096L12.7011 6.30096Z" stroke="black" stroke-width="2" stroke-linecap="round" stroke-linejoin="round"/>
</svg>
