<svg xmlns="http://www.w3.org/2000/svg" width="18" height="18" viewBox="0 0 18 18">
  <g id="Group_2378" data-name="Group 2378" transform="translate(-200 -3142)">
    <g id="Ellipse_3273" data-name="Ellipse 3273" transform="translate(200 3142)" fill="#fff" stroke="#000" stroke-width="2">
      <circle cx="9" cy="9" r="9" stroke="none"/>
      <circle cx="9" cy="9" r="8" fill="none"/>
    </g>
    <g id="Polygon_12" data-name="Polygon 12" transform="matrix(-0.017, 1, -1, -0.017, 214.595, 3145.57)" fill="#fff">
      <path d="M 9.098969459533691 7.000002384185791 L 1.901028990745544 7.000002384185791 C 1.90103280544281 7.000000953674316 1.901032209396362 7 1.901031494140625 6.999998569488525 L 5.499792575836182 1.765432238578796 L 5.499984741210938 1.765432238578796 L 9.098969459533691 7.000002384185791 C 9.098965644836426 7 9.098965644836426 7.000000953674316 9.098964691162109 7.000002384185791 L 9.098969459533691 7.000002384185791 Z" stroke="none"/>
      <path d="M 5.499998092651367 3.530269622802734 L 3.80205774307251 6.000002861022949 L 7.197939872741699 6.000002861022949 L 5.499998092651367 3.530269622802734 M 5.499999523162842 0.7651329040527344 C 5.812682151794434 0.7651329040527344 6.125364303588867 0.9096226692199707 6.324039459228516 1.198602676391602 L 9.923009872436523 6.433472633361816 C 10.37916946411133 7.096972465515137 9.904150009155273 8.000002861022949 9.098969459533691 8.000002861022949 L 1.901029586791992 8.000002861022949 C 1.095849990844727 8.000002861022949 0.6208295822143555 7.096972465515137 1.07698917388916 6.433472633361816 L 4.675959587097168 1.198602676391602 C 4.874634742736816 0.9096226692199707 5.18731689453125 0.7651329040527344 5.499999523162842 0.7651329040527344 Z" stroke="none" fill="#161c22"/>
    </g>
  </g>
</svg>
